<?xml version="1.0" encoding="UTF-8"?>
<svg xmlns="http://www.w3.org/2000/svg" xmlns:xlink="http://www.w3.org/1999/xlink" viewBox="0 0 1602.16 542.91">
  <defs>
    <style>
      .cls-1 {
        filter: url(#drop-shadow-1);
      }

      .cls-1, .cls-2, .cls-3, .cls-4, .cls-5, .cls-6, .cls-7, .cls-8, .cls-9, .cls-10, .cls-11, .cls-12, .cls-13, .cls-14, .cls-15, .cls-16, .cls-17, .cls-18, .cls-19, .cls-20, .cls-21, .cls-22, .cls-23 {
        fill: none;
      }

      .cls-2 {
        filter: url(#drop-shadow-4);
      }

      .cls-3 {
        filter: url(#drop-shadow-5);
      }

      .cls-24 {
        fill: #020202;
      }

      .cls-4 {
        filter: url(#drop-shadow-16);
      }

      .cls-5 {
        filter: url(#drop-shadow-17);
      }

      .cls-6 {
        filter: url(#drop-shadow-6);
      }

      .cls-7 {
        filter: url(#drop-shadow-22);
      }

      .cls-8 {
        filter: url(#drop-shadow-24);
      }

      .cls-25 {
        fill: #dedfde;
      }

      .cls-9 {
        filter: url(#drop-shadow-11);
      }

      .cls-10 {
        isolation: isolate;
      }

      .cls-26, .cls-27 {
        fill: #fbfbfb;
      }

      .cls-11 {
        filter: url(#drop-shadow-14);
      }

      .cls-12 {
        filter: url(#drop-shadow-19);
      }

      .cls-13 {
        filter: url(#drop-shadow-20);
      }

      .cls-28 {
        fill: #e5e6e5;
      }

      .cls-29 {
        fill: #edeeee;
      }

      .cls-15 {
        filter: url(#drop-shadow-7);
      }

      .cls-16 {
        clip-path: url(#clippath);
      }

      .cls-17 {
        filter: url(#drop-shadow-2);
      }

      .cls-18 {
        clip-path: url(#clippath-1);
      }

      .cls-19 {
        filter: url(#drop-shadow-13);
      }

      .cls-20 {
        filter: url(#drop-shadow-23);
      }

      .cls-21 {
        filter: url(#drop-shadow-18);
      }

      .cls-22 {
        filter: url(#drop-shadow-3);
      }

      .cls-27 {
        mix-blend-mode: screen;
        opacity: .3;
      }

      .cls-23 {
        filter: url(#drop-shadow-10);
      }
    </style>
    <clipPath id="clippath">
      <rect class="cls-14" width="1602.16" height="542.91"/>
    </clipPath>
    <clipPath id="clippath-1">
      <rect class="cls-14" x="1.89" y="-96.79" width="1601.37" height="1067.58"/>
    </clipPath>
    <filter id="drop-shadow-1" filterUnits="userSpaceOnUse">
      <feOffset dx="-4.56" dy="6"/>
      <feGaussianBlur result="blur" stdDeviation="5"/>
      <feFlood flood-color="#201e50" flood-opacity=".2"/>
      <feComposite in2="blur" operator="in"/>
      <feComposite in="SourceGraphic"/>
    </filter>
    <filter id="drop-shadow-2" filterUnits="userSpaceOnUse">
      <feOffset dx="-4.56" dy="6"/>
      <feGaussianBlur result="blur-2" stdDeviation="5"/>
      <feFlood flood-color="#201e50" flood-opacity=".2"/>
      <feComposite in2="blur-2" operator="in"/>
      <feComposite in="SourceGraphic"/>
    </filter>
    <filter id="drop-shadow-3" filterUnits="userSpaceOnUse">
      <feOffset dx="-4.56" dy="6"/>
      <feGaussianBlur result="blur-3" stdDeviation="5"/>
      <feFlood flood-color="#201e50" flood-opacity=".2"/>
      <feComposite in2="blur-3" operator="in"/>
      <feComposite in="SourceGraphic"/>
    </filter>
    <filter id="drop-shadow-4" filterUnits="userSpaceOnUse">
      <feOffset dx="-10.23" dy="10.23"/>
      <feGaussianBlur result="blur-4" stdDeviation="16.37"/>
      <feFlood flood-color="#201e50" flood-opacity=".4"/>
      <feComposite in2="blur-4" operator="in"/>
      <feComposite in="SourceGraphic"/>
    </filter>
    <filter id="drop-shadow-5" filterUnits="userSpaceOnUse">
      <feOffset dx="-4.56" dy="6"/>
      <feGaussianBlur result="blur-5" stdDeviation="5"/>
      <feFlood flood-color="#201e50" flood-opacity=".2"/>
      <feComposite in2="blur-5" operator="in"/>
      <feComposite in="SourceGraphic"/>
    </filter>
    <filter id="drop-shadow-6" filterUnits="userSpaceOnUse">
      <feOffset dx="-10.23" dy="20"/>
      <feGaussianBlur result="blur-6" stdDeviation="16.37"/>
      <feFlood flood-color="#201e50" flood-opacity=".6"/>
      <feComposite in2="blur-6" operator="in"/>
      <feComposite in="SourceGraphic"/>
    </filter>
    <filter id="drop-shadow-7" filterUnits="userSpaceOnUse">
      <feOffset dx="-4.56" dy="6"/>
      <feGaussianBlur result="blur-7" stdDeviation="5"/>
      <feFlood flood-color="#201e50" flood-opacity=".2"/>
      <feComposite in2="blur-7" operator="in"/>
      <feComposite in="SourceGraphic"/>
    </filter>
    <filter id="drop-shadow-10" filterUnits="userSpaceOnUse">
      <feOffset dx="-4.56" dy="6"/>
      <feGaussianBlur result="blur-8" stdDeviation="5"/>
      <feFlood flood-color="#201e50" flood-opacity=".2"/>
      <feComposite in2="blur-8" operator="in"/>
      <feComposite in="SourceGraphic"/>
    </filter>
    <filter id="drop-shadow-11" filterUnits="userSpaceOnUse">
      <feOffset dx="-2" dy="2"/>
      <feGaussianBlur result="blur-9" stdDeviation="3"/>
      <feFlood flood-color="#201e50" flood-opacity=".1"/>
      <feComposite in2="blur-9" operator="in"/>
      <feComposite in="SourceGraphic"/>
    </filter>
    <filter id="drop-shadow-13" filterUnits="userSpaceOnUse">
      <feOffset dx="-2" dy="2"/>
      <feGaussianBlur result="blur-10" stdDeviation="3"/>
      <feFlood flood-color="#201e50" flood-opacity=".1"/>
      <feComposite in2="blur-10" operator="in"/>
      <feComposite in="SourceGraphic"/>
    </filter>
    <filter id="drop-shadow-14" filterUnits="userSpaceOnUse">
      <feOffset dx="-2" dy="2"/>
      <feGaussianBlur result="blur-11" stdDeviation="3"/>
      <feFlood flood-color="#201e50" flood-opacity=".1"/>
      <feComposite in2="blur-11" operator="in"/>
      <feComposite in="SourceGraphic"/>
    </filter>
    <filter id="drop-shadow-16" filterUnits="userSpaceOnUse">
      <feOffset dx="-4.56" dy="6"/>
      <feGaussianBlur result="blur-12" stdDeviation="5"/>
      <feFlood flood-color="#201e50" flood-opacity=".2"/>
      <feComposite in2="blur-12" operator="in"/>
      <feComposite in="SourceGraphic"/>
    </filter>
    <filter id="drop-shadow-17" filterUnits="userSpaceOnUse">
      <feOffset dx="-4.56" dy="6"/>
      <feGaussianBlur result="blur-13" stdDeviation="5"/>
      <feFlood flood-color="#201e50" flood-opacity=".2"/>
      <feComposite in2="blur-13" operator="in"/>
      <feComposite in="SourceGraphic"/>
    </filter>
    <filter id="drop-shadow-18" filterUnits="userSpaceOnUse">
      <feOffset dx="-4.56" dy="6"/>
      <feGaussianBlur result="blur-14" stdDeviation="5"/>
      <feFlood flood-color="#201e50" flood-opacity=".2"/>
      <feComposite in2="blur-14" operator="in"/>
      <feComposite in="SourceGraphic"/>
    </filter>
    <filter id="drop-shadow-19" filterUnits="userSpaceOnUse">
      <feOffset dx="-4.56" dy="6"/>
      <feGaussianBlur result="blur-15" stdDeviation="5"/>
      <feFlood flood-color="#201e50" flood-opacity=".2"/>
      <feComposite in2="blur-15" operator="in"/>
      <feComposite in="SourceGraphic"/>
    </filter>
    <filter id="drop-shadow-20" filterUnits="userSpaceOnUse">
      <feOffset dx="-2" dy="2"/>
      <feGaussianBlur result="blur-16" stdDeviation="3"/>
      <feFlood flood-color="#201e50" flood-opacity=".1"/>
      <feComposite in2="blur-16" operator="in"/>
      <feComposite in="SourceGraphic"/>
    </filter>
    <filter id="drop-shadow-22" filterUnits="userSpaceOnUse">
      <feOffset dx="-4.56" dy="6"/>
      <feGaussianBlur result="blur-17" stdDeviation="5"/>
      <feFlood flood-color="#201e50" flood-opacity=".2"/>
      <feComposite in2="blur-17" operator="in"/>
      <feComposite in="SourceGraphic"/>
    </filter>
    <filter id="drop-shadow-23" filterUnits="userSpaceOnUse">
      <feOffset dx="-4.56" dy="6"/>
      <feGaussianBlur result="blur-18" stdDeviation="5"/>
      <feFlood flood-color="#201e50" flood-opacity=".2"/>
      <feComposite in2="blur-18" operator="in"/>
      <feComposite in="SourceGraphic"/>
    </filter>
    <filter id="drop-shadow-24" filterUnits="userSpaceOnUse">
      <feOffset dx="-4.56" dy="6"/>
      <feGaussianBlur result="blur-19" stdDeviation="5"/>
      <feFlood flood-color="#201e50" flood-opacity=".2"/>
      <feComposite in2="blur-19" operator="in"/>
      <feComposite in="SourceGraphic"/>
    </filter>
  </defs>
  <g class="cls-10">
    <g id="Camada_2" data-name="Camada 2">
      <g id="OBJECTS">
        <g class="cls-16">
          <rect class="cls-24" x="1.89" y="-98.25" width="1601.37" height="1067.58"/>
          <rect class="cls-28" x="1.89" y="-98.93" width="1601.37" height="1067.58"/>
          <g class="cls-18">
            <g>
              <g class="cls-1">
                <path class="cls-29" d="m275.79,468.79c-11.2,0-22.4-2.88-32.39-8.65l-204.59-118.12c-19.98-11.53-32.39-33.03-32.39-56.1V49.68C6.43,26.61,18.84,5.12,38.82-6.42l204.59-118.12c19.98-11.53,44.8-11.54,64.78,0L512.77-6.42c19.98,11.53,32.39,33.03,32.39,56.1v236.24c0,23.07-12.41,44.57-32.39,56.1l-204.58,118.12c-9.99,5.77-21.19,8.65-32.39,8.65Zm0-568.05c-5.33,0-10.67,1.37-15.42,4.12L55.79,22.97c-9.51,5.49-15.42,15.73-15.42,26.71v236.24c0,10.98,5.91,21.22,15.42,26.71l204.59,118.12c9.51,5.49,21.33,5.49,30.84,0l204.58-118.12c9.51-5.49,15.42-15.73,15.42-26.71V49.68c0-10.98-5.91-21.22-15.42-26.71l-204.58-118.12c-4.76-2.75-10.09-4.12-15.42-4.12Z"/>
                <path class="cls-27" d="m496.87,21.12l-204.58-118.12c-4.99-2.88-10.7-4.4-16.49-4.4s-11.5,1.52-16.49,4.4L54.72,21.12c-10.17,5.87-16.49,16.82-16.49,28.56v236.24c0,11.74,6.32,22.69,16.49,28.56l204.59,118.12c4.99,2.88,10.69,4.4,16.49,4.4h0c5.79,0,11.5-1.52,16.49-4.4l204.58-118.12c10.17-5.87,16.49-16.81,16.49-28.56V49.68c0-11.74-6.32-22.69-16.49-28.56Zm14.35,264.8c0,10.98-5.91,21.22-15.42,26.71l-204.58,118.12c-9.51,5.49-21.33,5.49-30.84,0l-204.59-118.12c-9.51-5.49-15.42-15.73-15.42-26.71V49.68c0-10.98,5.91-21.22,15.42-26.71l204.59-118.12c4.76-2.75,10.09-4.12,15.42-4.12s10.66,1.37,15.42,4.12L495.8,22.97c9.51,5.49,15.42,15.73,15.42,26.71v236.24Zm1.55-292.33l-204.58-118.12c-19.98-11.54-44.8-11.53-64.78,0L38.82-6.42C18.84,5.12,6.43,26.61,6.43,49.68v236.24c0,23.07,12.41,44.57,32.39,56.1l204.59,118.12c9.99,5.77,21.19,8.65,32.39,8.65s22.4-2.88,32.39-8.65l204.58-118.12c19.98-11.53,32.39-33.03,32.39-56.1V49.68c0-23.07-12.41-44.56-32.39-56.1Zm30.25,292.33c0,22.31-12,43.1-31.32,54.25l-204.58,118.12c-9.48,5.47-20.31,8.37-31.32,8.37s-21.84-2.89-31.32-8.37l-204.58-118.12c-19.32-11.15-31.32-31.94-31.32-54.25V49.68c0-22.31,12-43.1,31.32-54.25l204.58-118.12c9.48-5.47,20.31-8.37,31.32-8.37s21.84,2.89,31.32,8.37L511.7-4.57c19.32,11.15,31.32,31.94,31.32,54.25v236.24Z"/>
              </g>
              <g class="cls-17">
                <path class="cls-28" d="m1180.75,529.96v154.12c0,4.64,2.48,8.93,6.5,11.25l133.47,77.06c4.02,2.32,8.97,2.32,12.99,0l133.47-77.06c4.02-2.32,6.5-6.61,6.5-11.25v-154.12c0-4.64-2.48-8.93-6.5-11.25l-133.47-77.06c-4.02-2.32-8.97-2.32-12.99,0l-133.47,77.06c-4.02,2.32-6.5,6.61-6.5,11.25Z"/>
                <path class="cls-26" d="m1459.8,514.45l-118.72-68.54c-8.58-4.96-19.16-4.96-27.74,0l-118.72,68.54c-8.58,4.96-13.87,14.12-13.87,24.03v137.09c0,9.91,5.29,19.07,13.87,24.03l118.72,68.54c8.58,4.96,19.16,4.96,27.74,0l118.72-68.54c8.58-4.96,13.87-14.12,13.87-24.03v-137.09c0-9.91-5.29-19.07-13.87-24.03Zm11.74,161.11c0,9.12-4.91,17.62-12.8,22.18l-118.72,68.54c-3.89,2.25-8.32,3.43-12.8,3.43s-8.92-1.19-12.8-3.43l-118.72-68.54c-7.9-4.56-12.8-13.06-12.8-22.18v-137.09c0-9.12,4.91-17.62,12.8-22.18l118.72-68.54c3.89-2.25,8.32-3.43,12.8-3.43s8.92,1.19,12.8,3.43l118.72,68.54c7.9,4.56,12.8,13.06,12.8,22.18v137.09Z"/>
              </g>
              <g class="cls-22">
                <path class="cls-28" d="m1276.87,99.01v154.12c0,4.64,2.48,8.93,6.5,11.25l133.47,77.06c4.02,2.32,8.97,2.32,12.99,0l133.47-77.06c4.02-2.32,6.5-6.61,6.5-11.25V99.01c0-4.64-2.48-8.93-6.5-11.25l-133.47-77.06c-4.02-2.32-8.97-2.32-12.99,0l-133.47,77.06c-4.02,2.32-6.5,6.61-6.5,11.25Z"/>
                <path class="cls-26" d="m1555.92,83.5l-118.72-68.54c-8.58-4.96-19.16-4.96-27.74,0l-118.72,68.54c-8.58,4.96-13.87,14.12-13.87,24.03v137.09c0,9.91,5.29,19.07,13.87,24.03l118.72,68.54c8.58,4.96,19.16,4.96,27.74,0l118.72-68.54c8.58-4.96,13.87-14.12,13.87-24.03V107.53c0-9.91-5.29-19.07-13.87-24.03Zm11.74,161.11c0,9.12-4.91,17.62-12.8,22.18l-118.72,68.54c-3.89,2.25-8.32,3.43-12.8,3.43s-8.92-1.19-12.8-3.43l-118.72-68.54c-7.9-4.56-12.8-13.06-12.8-22.18V107.53c0-9.12,4.91-17.62,12.8-22.18l118.72-68.54c3.89-2.25,8.32-3.43,12.8-3.43s8.92,1.19,12.8,3.43l118.72,68.54c7.9,4.56,12.8,13.06,12.8,22.18v137.09Z"/>
              </g>
              <g class="cls-2">
                <path class="cls-25" d="m121.46,686.61v349.75c0,10.54,5.62,20.27,14.74,25.54l302.9,174.88c9.12,5.27,20.36,5.27,29.49,0l302.9-174.88c9.12-5.27,14.74-15,14.74-25.54v-349.75c0-10.54-5.62-20.27-14.74-25.54l-302.9-174.88c-9.12-5.27-20.36-5.27-29.49,0l-302.9,174.88c-9.12,5.27-14.74,15-14.74,25.54Z"/>
                <path class="cls-26" d="m754.74,651.41l-269.42-155.55c-19.48-11.25-43.48-11.25-62.96,0l-269.42,155.55c-19.48,11.25-31.48,32.03-31.48,54.53v311.1c0,22.49,12,43.28,31.48,54.53l269.42,155.55c19.48,11.25,43.48,11.25,62.96,0l269.42-155.55c19.48-11.25,31.48-32.03,31.48-54.53v-311.1c0-22.49-12-43.28-31.48-54.53Zm28.36,365.63c0,21.31-11.47,41.17-29.92,51.82l-269.42,155.55c-9.08,5.24-19.43,8.02-29.92,8.02s-20.83-2.77-29.92-8.02l-269.42-155.55c-18.46-10.66-29.92-30.51-29.92-51.82v-311.1c0-21.31,11.46-41.17,29.92-51.82l269.42-155.55c9.08-5.24,19.43-8.02,29.92-8.02s20.84,2.77,29.92,8.02l269.42,155.55c18.46,10.66,29.92,30.51,29.92,51.82v311.1Z"/>
              </g>
              <g class="cls-3">
                <path class="cls-29" d="m662.4,102.82v101.82c0,3.07,1.64,5.9,4.29,7.43l88.18,50.91c2.66,1.53,5.93,1.53,8.58,0l88.18-50.91c2.66-1.53,4.29-4.37,4.29-7.43v-101.82c0-3.07-1.64-5.9-4.29-7.43l-88.18-50.91c-2.66-1.53-5.93-1.53-8.58,0l-88.18,50.91c-2.66,1.53-4.29,4.37-4.29,7.43Z"/>
                <path class="cls-26" d="m846.76,92.57l-78.43-45.28c-5.67-3.27-12.66-3.27-18.33,0l-78.43,45.28c-5.67,3.27-9.16,9.32-9.16,15.87v90.56c0,6.55,3.49,12.6,9.16,15.87l78.43,45.28c5.67,3.27,12.66,3.27,18.33,0l78.43-45.28c5.67-3.27,9.16-9.32,9.16-15.87v-90.56c0-6.55-3.49-12.6-9.16-15.87Zm7.03,106.44c0,5.77-3.1,11.14-8.1,14.02l-78.43,45.28c-2.46,1.42-5.26,2.17-8.1,2.17s-5.64-.75-8.1-2.17l-78.43-45.28c-4.99-2.88-8.1-8.25-8.1-14.02v-90.57c0-5.77,3.1-11.14,8.1-14.02l78.43-45.28c2.46-1.42,5.26-2.17,8.1-2.17s5.64.75,8.1,2.17l78.43,45.28c4.99,2.88,8.1,8.26,8.1,14.02v90.57Z"/>
              </g>
              <g class="cls-6">
                <path class="cls-28" d="m1154.84,614.48v212.76c0,15.38,8.21,29.6,21.53,37.29l184.25,106.38c13.32,7.69,29.74,7.69,43.06,0l184.25-106.38c13.32-7.69,21.53-21.91,21.53-37.29v-212.76c0-15.38-8.21-29.6-21.53-37.29l-184.25-106.38c-13.32-7.69-29.74-7.69-43.06,0l-184.25,106.38c-13.32,7.69-21.53,21.91-21.53,37.29Z"/>
                <path class="cls-26" d="m1587.93,577.19l-184.25-106.38c-13.32-7.69-29.74-7.69-43.06,0l-184.25,106.38c-13.32,7.69-21.53,21.91-21.53,37.29v212.76c0,15.38,8.21,29.6,21.53,37.29l184.25,106.38c13.32,7.69,29.74,7.69,43.06,0l184.25-106.38c13.32-7.69,21.53-21.91,21.53-37.29v-212.76c0-15.38-8.21-29.6-21.53-37.29Zm19.39,250.05c0,14.57-7.84,28.15-20.46,35.44l-184.25,106.38c-6.21,3.59-13.29,5.48-20.46,5.48s-14.25-1.9-20.46-5.48l-184.25-106.38c-12.62-7.29-20.46-20.87-20.46-35.44v-212.76c0-14.57,7.84-28.15,20.46-35.44l184.25-106.38c6.21-3.59,13.29-5.48,20.46-5.48s14.25,1.9,20.46,5.48l184.25,106.38c12.62,7.29,20.46,20.87,20.46,35.44v212.76Z"/>
              </g>
              <g class="cls-15">
                <path class="cls-29" d="m206.37,1021.85c-11.2,0-22.4-2.88-32.39-8.65l-204.59-118.12c-19.98-11.53-32.39-33.03-32.39-56.1v-236.24c0-23.07,12.41-44.56,32.39-56.1l204.59-118.12c19.98-11.53,44.8-11.54,64.78,0l204.58,118.12c19.98,11.53,32.39,33.03,32.39,56.1v236.24c0,23.07-12.41,44.57-32.39,56.1l-204.58,118.12c-9.99,5.77-21.19,8.65-32.39,8.65Zm0-568.05c-5.33,0-10.67,1.37-15.42,4.12L-13.64,576.03c-9.51,5.49-15.42,15.73-15.42,26.71v236.24c0,10.98,5.91,21.22,15.42,26.71l204.59,118.12c9.51,5.49,21.33,5.49,30.84,0l204.58-118.12c9.51-5.49,15.42-15.73,15.42-26.71v-236.24c0-10.98-5.91-21.22-15.42-26.71l-204.58-118.12c-4.76-2.75-10.09-4.12-15.42-4.12Z"/>
                <path class="cls-27" d="m427.44,574.18l-204.58-118.12c-4.99-2.88-10.7-4.4-16.49-4.4s-11.5,1.52-16.49,4.4L-14.71,574.18c-10.17,5.87-16.49,16.82-16.49,28.56v236.24c0,11.74,6.32,22.69,16.49,28.56l204.59,118.12c4.99,2.88,10.69,4.4,16.49,4.4h0c5.79,0,11.5-1.52,16.49-4.4l204.58-118.12c10.17-5.87,16.49-16.81,16.49-28.56v-236.24c0-11.74-6.32-22.69-16.49-28.56Zm14.35,264.8c0,10.98-5.91,21.22-15.42,26.71l-204.58,118.12c-9.51,5.49-21.33,5.49-30.84,0L-13.64,865.69c-9.51-5.49-15.42-15.73-15.42-26.71v-236.24c0-10.98,5.91-21.22,15.42-26.71l204.59-118.12c4.76-2.75,10.09-4.12,15.42-4.12s10.66,1.37,15.42,4.12l204.58,118.12c9.51,5.49,15.42,15.73,15.42,26.71v236.24Zm1.55-292.33l-204.58-118.12c-19.98-11.54-44.8-11.53-64.78,0l-204.59,118.12c-19.98,11.54-32.39,33.03-32.39,56.1v236.24c0,23.07,12.41,44.57,32.39,56.1l204.59,118.12c9.99,5.77,21.19,8.65,32.39,8.65s22.4-2.88,32.39-8.65l204.58-118.12c19.98-11.53,32.39-33.03,32.39-56.1v-236.24c0-23.07-12.41-44.56-32.39-56.1Zm30.25,292.33c0,22.31-12,43.1-31.32,54.25l-204.58,118.12c-9.48,5.47-20.31,8.37-31.32,8.37s-21.84-2.89-31.32-8.37l-204.58-118.12c-19.32-11.15-31.32-31.94-31.32-54.25v-236.24c0-22.31,12-43.1,31.32-54.25l204.58-118.12c9.48-5.47,20.31-8.37,31.32-8.37s21.84,2.89,31.32,8.37l204.58,118.12c19.32,11.15,31.32,31.94,31.32,54.25v236.24Z"/>
              </g>
              <g class="cls-23">
                <path class="cls-29" d="m357.08,439.64v101.82c0,3.07,1.64,5.9,4.29,7.43l88.18,50.91c2.66,1.53,5.93,1.53,8.58,0l88.18-50.91c2.66-1.53,4.29-4.37,4.29-7.43v-101.82c0-3.07-1.64-5.9-4.29-7.43l-88.18-50.91c-2.66-1.53-5.93-1.53-8.58,0l-88.18,50.91c-2.66,1.53-4.29,4.37-4.29,7.43Z"/>
                <path class="cls-26" d="m541.44,429.39l-78.43-45.28c-5.67-3.27-12.66-3.27-18.33,0l-78.43,45.28c-5.67,3.27-9.16,9.33-9.16,15.87v90.56c0,6.55,3.49,12.6,9.16,15.87l78.43,45.28c5.67,3.27,12.66,3.27,18.33,0l78.43-45.28c5.67-3.27,9.16-9.32,9.16-15.87v-90.56c0-6.55-3.49-12.6-9.16-15.87Zm7.03,106.44c0,5.77-3.1,11.14-8.1,14.02l-78.43,45.28c-2.46,1.42-5.26,2.17-8.1,2.17s-5.64-.75-8.1-2.17l-78.43-45.28c-4.99-2.88-8.1-8.25-8.1-14.02v-90.57c0-5.77,3.1-11.14,8.1-14.02l78.43-45.28c2.46-1.42,5.26-2.17,8.1-2.17s5.64.75,8.1,2.17l78.43,45.28c4.99,2.88,8.1,8.26,8.1,14.02v90.57Z"/>
              </g>
              <g class="cls-9">
                <path class="cls-29" d="m814.2,211.46v52.79c0,1.59.85,3.06,2.23,3.85l45.71,26.39c1.38.8,3.07.8,4.45,0l45.71-26.39c1.38-.8,2.23-2.26,2.23-3.85v-52.79c0-1.59-.85-3.06-2.23-3.85l-45.71-26.39c-1.38-.8-3.07-.8-4.45,0l-45.71,26.39c-1.38.8-2.23,2.26-2.23,3.85Z"/>
                <path class="cls-26" d="m909.78,206.14l-40.66-23.48c-2.94-1.7-6.56-1.7-9.5,0l-40.66,23.48c-2.94,1.7-4.75,4.83-4.75,8.23v46.95c0,3.39,1.81,6.53,4.75,8.23l40.66,23.48c2.94,1.7,6.56,1.7,9.5,0l40.66-23.48c2.94-1.7,4.75-4.83,4.75-8.23v-46.95c0-3.39-1.81-6.53-4.75-8.23Zm2.62,55.18c0,2.63-1.41,5.07-3.68,6.38l-40.66,23.48c-1.12.65-2.39.99-3.68.99s-2.56-.34-3.68-.99l-40.66-23.48c-2.27-1.31-3.68-3.76-3.68-6.38v-46.95c0-2.63,1.41-5.07,3.68-6.38l40.66-23.48c1.12-.65,2.39-.99,3.68-.99s2.56.34,3.68.99l40.66,23.48c2.27,1.31,3.68,3.76,3.68,6.38v46.95Z"/>
              </g>
              <g class="cls-19">
                <path class="cls-29" d="m1556.75,571.7v52.79c0,1.59.85,3.06,2.23,3.85l45.71,26.39c1.38.8,3.07.8,4.45,0l45.71-26.39c1.38-.8,2.23-2.26,2.23-3.85v-52.79c0-1.59-.85-3.06-2.23-3.85l-45.71-26.39c-1.38-.8-3.07-.8-4.45,0l-45.71,26.39c-1.38.79-2.23,2.26-2.23,3.85Z"/>
                <path class="cls-26" d="m1652.33,566.39l-40.66-23.48c-2.94-1.7-6.56-1.7-9.5,0l-40.66,23.48c-2.94,1.7-4.75,4.83-4.75,8.23v46.95c0,3.39,1.81,6.53,4.75,8.23l40.66,23.48c2.94,1.7,6.56,1.7,9.5,0l40.66-23.48c2.94-1.7,4.75-4.83,4.75-8.23v-46.95c0-3.39-1.81-6.53-4.75-8.23Zm2.62,55.18c0,2.63-1.41,5.07-3.68,6.38l-40.66,23.48c-1.12.65-2.39.99-3.68.99s-2.56-.34-3.68-.99l-40.66-23.48c-2.27-1.31-3.68-3.76-3.68-6.38v-46.95c0-2.63,1.41-5.07,3.68-6.38l40.66-23.48c1.12-.65,2.39-.99,3.68-.99s2.56.34,3.68.99l40.66,23.48c2.27,1.31,3.68,3.76,3.68,6.38v46.95Z"/>
              </g>
              <g class="cls-11">
                <path class="cls-29" d="m359.22,53.04v52.79c0,1.59.85,3.06,2.23,3.85l45.71,26.39c1.38.8,3.07.8,4.45,0l45.71-26.39c1.38-.8,2.23-2.26,2.23-3.85v-52.79c0-1.59-.85-3.06-2.23-3.85l-45.71-26.39c-1.38-.8-3.07-.8-4.45,0l-45.71,26.39c-1.38.8-2.23,2.26-2.23,3.85Z"/>
                <path class="cls-26" d="m454.79,47.73l-40.66-23.48c-2.94-1.7-6.56-1.7-9.5,0l-40.66,23.48c-2.94,1.7-4.75,4.83-4.75,8.23v46.95c0,3.39,1.81,6.53,4.75,8.23l40.66,23.48c2.94,1.7,6.56,1.7,9.5,0l40.66-23.48c2.94-1.7,4.75-4.83,4.75-8.23v-46.95c0-3.39-1.81-6.53-4.75-8.23Zm2.62,55.18c0,2.63-1.41,5.07-3.68,6.38l-40.66,23.48c-1.12.65-2.39.99-3.68.99s-2.56-.34-3.68-.99l-40.66-23.48c-2.27-1.31-3.68-3.76-3.68-6.38v-46.95c0-2.63,1.41-5.07,3.68-6.38l40.66-23.48c1.12-.65,2.39-.99,3.68-.99s2.56.34,3.68.99l40.66,23.48c2.27,1.31,3.68,3.76,3.68,6.38v46.95Z"/>
              </g>
              <g class="cls-4">
                <path class="cls-29" d="m1267.38,455.61v101.82c0,3.07,1.64,5.9,4.29,7.43l88.18,50.91c2.66,1.53,5.93,1.53,8.58,0l88.18-50.91c2.66-1.53,4.29-4.37,4.29-7.43v-101.82c0-3.07-1.64-5.9-4.29-7.43l-88.18-50.91c-2.66-1.53-5.93-1.53-8.58,0l-88.18,50.91c-2.66,1.53-4.29,4.37-4.29,7.43Z"/>
                <path class="cls-26" d="m1451.73,445.37l-78.43-45.28c-5.67-3.27-12.66-3.27-18.33,0l-78.43,45.28c-5.67,3.27-9.16,9.33-9.16,15.87v90.56c0,6.55,3.49,12.6,9.16,15.87l78.43,45.28c5.67,3.27,12.66,3.27,18.33,0l78.43-45.28c5.67-3.27,9.16-9.32,9.16-15.87v-90.56c0-6.55-3.49-12.6-9.16-15.87Zm7.03,106.44c0,5.77-3.1,11.14-8.1,14.02l-78.43,45.28c-2.46,1.42-5.26,2.17-8.1,2.17s-5.64-.75-8.1-2.17l-78.43-45.28c-4.99-2.88-8.1-8.25-8.1-14.02v-90.57c0-5.77,3.1-11.14,8.1-14.02l78.43-45.28c2.46-1.42,5.26-2.17,8.1-2.17s5.64.75,8.1,2.17l78.43,45.28c4.99,2.88,8.1,8.26,8.1,14.02v90.57Z"/>
              </g>
              <g class="cls-5">
                <path class="cls-29" d="m914.27,898.29c-11.2,0-22.4-2.88-32.39-8.65l-204.59-118.12c-19.98-11.53-32.39-33.03-32.39-56.1v-236.24c0-23.07,12.41-44.56,32.39-56.1l204.59-118.12c19.98-11.53,44.8-11.54,64.78,0l204.58,118.12c19.98,11.53,32.39,33.03,32.39,56.1v236.24c0,23.07-12.41,44.57-32.39,56.1l-204.58,118.12c-9.99,5.77-21.19,8.65-32.39,8.65Zm0-568.05c-5.33,0-10.67,1.37-15.42,4.12l-204.59,118.12c-9.51,5.49-15.42,15.73-15.42,26.71v236.24c0,10.98,5.91,21.22,15.42,26.71l204.59,118.12c9.51,5.49,21.33,5.49,30.84,0l204.58-118.12c9.51-5.49,15.42-15.73,15.42-26.71v-236.24c0-10.98-5.91-21.22-15.42-26.71l-204.58-118.12c-4.76-2.75-10.09-4.12-15.42-4.12Z"/>
                <path class="cls-27" d="m1135.35,450.62l-204.58-118.12c-4.99-2.88-10.7-4.4-16.49-4.4s-11.5,1.52-16.49,4.4l-204.59,118.12c-10.17,5.87-16.49,16.82-16.49,28.56v236.24c0,11.74,6.32,22.69,16.49,28.56l204.59,118.12c4.99,2.88,10.69,4.4,16.49,4.4h0c5.79,0,11.5-1.52,16.49-4.4l204.58-118.12c10.17-5.87,16.49-16.81,16.49-28.56v-236.24c0-11.74-6.32-22.69-16.49-28.56Zm14.35,264.8c0,10.98-5.91,21.22-15.42,26.71l-204.58,118.12c-9.51,5.49-21.33,5.49-30.84,0l-204.59-118.12c-9.51-5.49-15.42-15.73-15.42-26.71v-236.24c0-10.98,5.91-21.22,15.42-26.71l204.59-118.12c4.76-2.75,10.09-4.12,15.42-4.12s10.66,1.37,15.42,4.12l204.58,118.12c9.51,5.49,15.42,15.73,15.42,26.71v236.24Zm1.55-292.33l-204.58-118.12c-19.98-11.54-44.8-11.53-64.78,0l-204.59,118.12c-19.98,11.53-32.39,33.03-32.39,56.1v236.24c0,23.07,12.41,44.57,32.39,56.1l204.59,118.12c9.99,5.77,21.19,8.65,32.39,8.65s22.4-2.88,32.39-8.65l204.58-118.12c19.98-11.53,32.39-33.03,32.39-56.1v-236.24c0-23.07-12.41-44.56-32.39-56.1Zm30.25,292.33c0,22.31-12,43.1-31.32,54.25l-204.58,118.12c-9.48,5.47-20.31,8.37-31.32,8.37s-21.84-2.89-31.32-8.37l-204.58-118.12c-19.32-11.15-31.32-31.94-31.32-54.25v-236.24c0-22.31,12-43.1,31.32-54.25l204.58-118.12c9.48-5.47,20.31-8.37,31.32-8.37s21.84,2.89,31.32,8.37l204.58,118.12c19.32,11.15,31.32,31.94,31.32,54.25v236.24Z"/>
              </g>
              <g class="cls-21">
                <path class="cls-29" d="m1382.15,451.07c-11.2,0-22.4-2.88-32.39-8.65l-204.59-118.12c-19.98-11.53-32.39-33.03-32.39-56.1V31.97c0-23.07,12.41-44.56,32.39-56.1l204.59-118.12c19.98-11.53,44.8-11.54,64.78,0l204.58,118.12c19.98,11.53,32.39,33.03,32.39,56.1v236.24c0,23.07-12.41,44.57-32.39,56.1l-204.58,118.12c-9.99,5.77-21.19,8.65-32.39,8.65Zm0-568.05c-5.33,0-10.67,1.37-15.42,4.12L1162.14,5.26c-9.51,5.49-15.42,15.73-15.42,26.71v236.24c0,10.98,5.91,21.22,15.42,26.71l204.59,118.12c9.51,5.49,21.33,5.49,30.84,0l204.58-118.12c9.51-5.49,15.42-15.73,15.42-26.71V31.97c0-10.98-5.91-21.22-15.42-26.71l-204.58-118.12c-4.76-2.75-10.09-4.12-15.42-4.12Z"/>
                <path class="cls-27" d="m1603.22,3.41l-204.58-118.12c-4.99-2.88-10.7-4.4-16.49-4.4s-11.5,1.52-16.49,4.4L1161.08,3.41c-10.17,5.87-16.49,16.82-16.49,28.56v236.24c0,11.74,6.32,22.69,16.49,28.56l204.59,118.12c4.99,2.88,10.69,4.4,16.49,4.4h0c5.79,0,11.5-1.52,16.49-4.4l204.58-118.12c10.17-5.87,16.49-16.81,16.49-28.56V31.97c0-11.74-6.32-22.69-16.49-28.56Zm14.35,264.8c0,10.98-5.91,21.22-15.42,26.71l-204.58,118.12c-9.51,5.49-21.33,5.49-30.84,0l-204.59-118.12c-9.51-5.49-15.42-15.73-15.42-26.71V31.97c0-10.98,5.91-21.22,15.42-26.71l204.59-118.12c4.76-2.75,10.09-4.12,15.42-4.12s10.66,1.37,15.42,4.12L1602.16,5.26c9.51,5.49,15.42,15.73,15.42,26.71v236.24Zm1.55-292.33l-204.58-118.12c-19.98-11.54-44.8-11.53-64.78,0l-204.59,118.12c-19.98,11.54-32.39,33.03-32.39,56.1v236.24c0,23.07,12.41,44.57,32.39,56.1l204.59,118.12c9.99,5.77,21.19,8.65,32.39,8.65s22.4-2.88,32.39-8.65l204.58-118.12c19.98-11.53,32.39-33.03,32.39-56.1V31.97c0-23.07-12.41-44.56-32.39-56.1Zm30.25,292.33c0,22.31-12,43.1-31.32,54.25l-204.58,118.12c-9.48,5.47-20.31,8.37-31.32,8.37s-21.84-2.89-31.32-8.37l-204.58-118.12c-19.32-11.15-31.32-31.94-31.32-54.25V31.97c0-22.31,12-43.1,31.32-54.25l204.58-118.12c9.48-5.47,20.31-8.37,31.32-8.37s21.84,2.89,31.32,8.37l204.58,118.12c19.32,11.15,31.32,31.94,31.32,54.25v236.24Z"/>
              </g>
              <g class="cls-12">
                <path class="cls-29" d="m829.62,38.67v101.82c0,3.07,1.64,5.9,4.29,7.43l88.18,50.91c2.66,1.53,5.93,1.53,8.58,0l88.18-50.91c2.66-1.53,4.29-4.37,4.29-7.43V38.67c0-3.07-1.64-5.9-4.29-7.43l-88.18-50.91c-2.66-1.53-5.93-1.53-8.58,0l-88.18,50.91c-2.66,1.53-4.29,4.37-4.29,7.43Z"/>
                <path class="cls-26" d="m1013.97,28.42l-78.43-45.28c-5.67-3.27-12.66-3.27-18.33,0l-78.43,45.28c-5.67,3.27-9.16,9.32-9.16,15.87v90.56c0,6.55,3.49,12.6,9.16,15.87l78.43,45.28c5.67,3.27,12.66,3.27,18.33,0l78.43-45.28c5.67-3.27,9.16-9.32,9.16-15.87V44.29c0-6.55-3.49-12.6-9.16-15.87Zm7.03,106.44c0,5.77-3.1,11.14-8.1,14.02l-78.43,45.28c-2.46,1.42-5.26,2.17-8.1,2.17s-5.64-.75-8.1-2.17l-78.43-45.28c-4.99-2.88-8.1-8.25-8.1-14.02V44.29c0-5.77,3.1-11.14,8.1-14.02l78.43-45.28c2.46-1.42,5.26-2.17,8.1-2.17s5.64.75,8.1,2.17l78.43,45.28c4.99,2.88,8.1,8.26,8.1,14.02v90.57Z"/>
              </g>
              <g class="cls-13">
                <path class="cls-29" d="m534.98,167.64v52.79c0,1.59.85,3.06,2.23,3.85l45.71,26.39c1.38.79,3.07.79,4.45,0l45.71-26.39c1.38-.8,2.23-2.26,2.23-3.85v-52.79c0-1.59-.85-3.06-2.23-3.85l-45.71-26.39c-1.38-.8-3.07-.8-4.45,0l-45.71,26.39c-1.38.8-2.23,2.26-2.23,3.85Z"/>
                <path class="cls-26" d="m630.55,162.32l-40.66-23.48c-2.94-1.7-6.56-1.7-9.5,0l-40.66,23.48c-2.94,1.7-4.75,4.83-4.75,8.23v46.95c0,3.39,1.81,6.53,4.75,8.23l40.66,23.48c2.94,1.7,6.56,1.7,9.5,0l40.66-23.48c2.94-1.7,4.75-4.83,4.75-8.23v-46.95c0-3.39-1.81-6.53-4.75-8.23Zm2.62,55.18c0,2.63-1.41,5.07-3.68,6.38l-40.66,23.48c-1.12.65-2.39.99-3.68.99s-2.56-.34-3.68-.99l-40.66-23.48c-2.27-1.31-3.68-3.76-3.68-6.38v-46.95c0-2.63,1.41-5.07,3.68-6.38l40.66-23.48c1.12-.65,2.39-.99,3.68-.99s2.56.34,3.68.99l40.66,23.48c2.27,1.31,3.68,3.76,3.68,6.38v46.95Z"/>
              </g>
              <g class="cls-7">
                <path class="cls-28" d="m983.93,223.15v154.12c0,4.64,2.48,8.93,6.5,11.25l133.47,77.06c4.02,2.32,8.97,2.32,12.99,0l133.47-77.06c4.02-2.32,6.5-6.61,6.5-11.25v-154.12c0-4.64-2.48-8.93-6.5-11.25l-133.47-77.06c-4.02-2.32-8.97-2.32-12.99,0l-133.47,77.06c-4.02,2.32-6.5,6.61-6.5,11.25Z"/>
                <path class="cls-26" d="m1262.99,207.64l-118.72-68.54c-8.58-4.96-19.16-4.96-27.74,0l-118.72,68.54c-8.58,4.96-13.87,14.12-13.87,24.03v137.09c0,9.91,5.29,19.07,13.87,24.03l118.72,68.54c8.58,4.96,19.16,4.96,27.74,0l118.72-68.54c8.58-4.96,13.87-14.12,13.87-24.03v-137.09c0-9.91-5.29-19.07-13.87-24.03Zm11.74,161.11c0,9.12-4.91,17.62-12.8,22.18l-118.72,68.54c-3.89,2.25-8.32,3.43-12.8,3.43s-8.92-1.19-12.8-3.43l-118.72-68.54c-7.9-4.56-12.8-13.06-12.8-22.18v-137.09c0-9.12,4.91-17.62,12.8-22.18l118.72-68.54c3.89-2.25,8.32-3.43,12.8-3.43s8.92,1.19,12.8,3.43l118.72,68.54c7.9,4.56,12.8,13.06,12.8,22.18v137.09Z"/>
              </g>
              <g class="cls-20">
                <path class="cls-29" d="m1157.74,80.18v101.82c0,3.07,1.64,5.9,4.29,7.43l88.18,50.91c2.66,1.53,5.93,1.53,8.58,0l88.18-50.91c2.66-1.53,4.29-4.37,4.29-7.43v-101.82c0-3.07-1.64-5.9-4.29-7.43l-88.18-50.91c-2.66-1.53-5.93-1.53-8.58,0l-88.18,50.91c-2.66,1.53-4.29,4.37-4.29,7.43Z"/>
                <path class="cls-26" d="m1342.1,69.93l-78.43-45.28c-5.67-3.27-12.66-3.27-18.33,0l-78.43,45.28c-5.67,3.27-9.16,9.32-9.16,15.87v90.56c0,6.55,3.49,12.6,9.16,15.87l78.43,45.28c5.67,3.27,12.66,3.27,18.33,0l78.43-45.28c5.67-3.27,9.16-9.32,9.16-15.87v-90.56c0-6.55-3.49-12.6-9.16-15.87Zm7.03,106.44c0,5.77-3.1,11.14-8.1,14.02l-78.43,45.28c-2.46,1.42-5.26,2.17-8.1,2.17s-5.64-.75-8.1-2.17l-78.43-45.28c-5-2.88-8.1-8.25-8.1-14.02v-90.57c0-5.77,3.1-11.14,8.1-14.02l78.43-45.28c2.46-1.42,5.26-2.17,8.1-2.17s5.64.75,8.1,2.17l78.43,45.28c4.99,2.88,8.1,8.26,8.1,14.02v90.57Z"/>
              </g>
              <g class="cls-8">
                <path class="cls-29" d="m680.66-40.76V61.06c0,3.07,1.64,5.9,4.29,7.43l88.18,50.91c2.66,1.53,5.93,1.53,8.58,0l88.18-50.91c2.66-1.53,4.29-4.37,4.29-7.43V-40.76c0-3.07-1.64-5.9-4.29-7.43l-88.18-50.91c-2.66-1.53-5.93-1.53-8.58,0l-88.18,50.91c-2.66,1.53-4.29,4.37-4.29,7.43Z"/>
                <path class="cls-26" d="m865.01-51.01l-78.43-45.28c-5.67-3.27-12.66-3.27-18.33,0l-78.43,45.28c-5.67,3.27-9.16,9.33-9.16,15.87V55.43c0,6.55,3.49,12.6,9.16,15.87l78.43,45.28c5.67,3.27,12.66,3.27,18.33,0l78.43-45.28c5.67-3.27,9.16-9.32,9.16-15.87V-35.13c0-6.55-3.49-12.6-9.16-15.87Zm7.03,106.44c0,5.77-3.1,11.14-8.1,14.02l-78.43,45.28c-2.46,1.42-5.26,2.17-8.1,2.17s-5.64-.75-8.1-2.17l-78.43-45.28c-4.99-2.88-8.1-8.25-8.1-14.02V-35.14c0-5.77,3.1-11.14,8.1-14.02l78.43-45.28c2.46-1.42,5.26-2.17,8.1-2.17s5.64.75,8.1,2.17l78.43,45.28c4.99,2.88,8.1,8.26,8.1,14.02V55.43Z"/>
              </g>
            </g>
          </g>
        </g>
      </g>
    </g>
  </g>
</svg>