<?xml version="1.0" encoding="utf-8"?>
<!-- Generator: Adobe Illustrator 27.7.0, SVG Export Plug-In . SVG Version: 6.00 Build 0)  -->
<svg version="1.1" xmlns="http://www.w3.org/2000/svg" xmlns:xlink="http://www.w3.org/1999/xlink" x="0px" y="0px"
	 viewBox="0 0 1601.5 1067.7" style="enable-background:new 0 0 1601.5 1067.7;" xml:space="preserve">
<style type="text/css">
	.Graphic_x0020_Style_x0020_17{fill:none;}
	.Graphic_x0020_Style_x0020_18{fill:none;}
	.Graphic_x0020_Style_x0020_21{fill:none;}
	.Graphic_x0020_Style_x0020_19{fill:none;}
	.Graphic_x0020_Style_x0020_7{fill:none;}
	.Graphic_x0020_Style_x0020_8{fill:none;}
	.Graphic_x0020_Style_x0020_20{fill:none;}
	.st0{fill:#E5E6E5;}
	.st1{clip-path:url(#SVGID_00000121989601991195345900000008907884314582451881_);}
	.st2{fill:#DEDFDE;}
	.st3{clip-path:url(#SVGID_00000127019166918219145360000009805421475617480373_);}
	.st4{fill:#EDEEEE;}
	.st5{opacity:0.3;fill:#FBFBFB;}
	.st6{fill:#FBFBFB;}
	.st7{clip-path:url(#SVGID_00000090982855322419497840000006119367554855356601_);}
</style>
<g id="BACKGROUND">
	<rect x="1.8" class="st0" width="1601.5" height="1067.7"/>
</g>
<g id="OBJECTS">
	<g>
		<defs>
			<rect id="SVGID_1_" x="1.8" width="1601.5" height="1067.7"/>
		</defs>
		<clipPath id="SVGID_00000152259782140973813840000004205355871468722100_">
			<use xlink:href="#SVGID_1_"  style="overflow:visible;"/>
		</clipPath>
		<g style="clip-path:url(#SVGID_00000152259782140973813840000004205355871468722100_);">
			<g>
				<path class="st2" d="M48.5,542.6c-6.5,0-13.1-1.7-18.9-5.1l-139.3-80.4c-11.7-6.7-18.9-19.3-18.9-32.8V263.6
					c0-13.5,7.3-26.1,18.9-32.8l139.3-80.4c11.7-6.7,26.2-6.7,37.9,0l139.3,80.4c11.7,6.7,18.9,19.3,18.9,32.8v160.8
					c0,13.5-7.3,26.1-18.9,32.8L67.5,537.6C61.6,540.9,55.1,542.6,48.5,542.6z M48.5,156c-4.7,0-9.4,1.2-13.6,3.6L-104.3,240
					c-8.4,4.8-13.6,13.9-13.6,23.6v160.8c0,9.7,5.2,18.7,13.6,23.6l139.3,80.4c8.4,4.8,18.8,4.8,27.2,0l139.3-80.4
					c8.4-4.8,13.6-13.9,13.6-23.6V263.6c0-9.7-5.2-18.7-13.6-23.6L62.1,159.6C57.9,157.2,53.2,156,48.5,156z"/>
			</g>
			<g>
				<path class="st2" d="M511.9,934.5c-4.8,0-9.7-1.2-14-3.7l-97.2-56.1c-8.6-5-14-14.3-14-24.3V738.1c0-10,5.4-19.3,14-24.3
					l97.2-56.1c8.6-5,19.4-5,28,0l97.2,56.1c8.6,5,14,14.3,14,24.3v112.2c0,10-5.4,19.3-14,24.3L526,930.7
					C521.6,933.2,516.8,934.5,511.9,934.5z M511.9,664.7c-3,0-6,0.8-8.7,2.3l-97.2,56.1c-5.4,3.1-8.7,8.9-8.7,15v112.2
					c0,6.2,3.3,11.9,8.7,15l97.2,56.1c5.4,3.1,12,3.1,17.4,0l97.2-56.1c5.4-3.1,8.7-8.9,8.7-15V738.1c0-6.2-3.3-11.9-8.7-15
					L520.6,667C518,665.4,514.9,664.7,511.9,664.7z"/>
			</g>
			<g>
				<path class="st2" d="M836,896.2c-2.4,0-4.8-0.6-7-1.9l-36.8-21.2c-4.3-2.5-7-7.1-7-12.1v-42.5c0-5,2.7-9.6,7-12.1l36.8-21.2
					c4.3-2.5,9.6-2.5,13.9,0l36.8,21.2c4.3,2.5,7,7.1,7,12.1V861c0,5-2.7,9.6-7,12.1L843,894.3C840.9,895.5,838.5,896.2,836,896.2z
					 M836,794c-0.6,0-1.1,0.1-1.6,0.4l-36.8,21.2c-1,0.6-1.6,1.7-1.6,2.8V861c0,1.2,0.6,2.2,1.6,2.8l36.8,21.2c1,0.6,2.3,0.6,3.3,0
					l36.8-21.2c1-0.6,1.6-1.7,1.6-2.8v-42.5c0-1.2-0.6-2.2-1.6-2.8l-36.8-21.2C837.2,794.2,836.6,794,836,794z"/>
			</g>
			<g>
				<path class="st2" d="M135.6,1091.4c-11.8,0-23.6-3-34.1-9.1L-168,926.7c-21.1-12.2-34.1-34.8-34.1-59.1V556.5
					c0-24.3,13.1-47,34.1-59.1l269.4-155.5c21.1-12.2,47.2-12.2,68.3,0l269.4,155.5c21.1,12.2,34.1,34.8,34.1,59.1v311.1
					c0,24.3-13.1,47-34.1,59.1l-269.4,155.5C159.2,1088.3,147.4,1091.4,135.6,1091.4z M135.6,343.4c-10,0-19.9,2.6-28.8,7.7
					l-269.4,155.5c-17.8,10.3-28.8,29.4-28.8,49.9v311.1c0,20.5,11,39.6,28.8,49.9L106.8,1073c17.8,10.3,39.8,10.3,57.6,0
					l269.4-155.5c17.8-10.3,28.8-29.4,28.8-49.9V556.5c0-20.5-11-39.6-28.8-49.9L164.4,351.1C155.5,345.9,145.6,343.4,135.6,343.4z"
					/>
			</g>
			<g>
				<path class="st2" d="M1439.6,1529.7c-11.8,0-23.6-3-34.1-9.1L1136,1365c-21.1-12.2-34.1-34.8-34.1-59.1V994.8
					c0-24.3,13.1-47,34.1-59.1l269.4-155.5c21.1-12.2,47.2-12.2,68.3,0l269.4,155.5c21.1,12.2,34.1,34.8,34.1,59.1v311.1
					c0,24.3-13.1,47-34.1,59.1l-269.4,155.5C1463.2,1526.6,1451.4,1529.7,1439.6,1529.7z M1439.6,781.7c-10,0-19.9,2.6-28.8,7.7
					l-269.4,155.5c-17.8,10.3-28.8,29.4-28.8,49.9v311.1c0,20.5,11,39.6,28.8,49.9l269.4,155.5c17.8,10.3,39.9,10.3,57.6,0
					l269.4-155.5c17.8-10.3,28.8-29.4,28.8-49.9V994.8c0-20.5-11-39.6-28.8-49.9l-269.4-155.5
					C1459.5,784.2,1449.5,781.7,1439.6,781.7z"/>
			</g>
			<path class="st2" d="M200.3,526.6v66.7c0,2,1.1,3.9,2.8,4.9l57.7,33.3c1.7,1,3.9,1,5.6,0l57.7-33.3c1.7-1,2.8-2.9,2.8-4.9v-66.7
				c0-2-1.1-3.9-2.8-4.9l-57.7-33.3c-1.7-1-3.9-1-5.6,0l-57.7,33.3C201.4,522.7,200.3,524.6,200.3,526.6z"/>
			<path class="st2" d="M-61.6,615v66.7c0,2,1.1,3.9,2.8,4.9L-1,719.9c1.7,1,3.9,1,5.6,0l57.7-33.3c1.7-1,2.8-2.9,2.8-4.9V615
				c0-2-1.1-3.9-2.8-4.9L4.6,576.8c-1.7-1-3.9-1-5.6,0l-57.7,33.3C-60.5,611.2-61.6,613-61.6,615z"/>
			<path class="st2" d="M956.9,873.9v46.9c0,1.4,0.8,2.7,2,3.4l40.6,23.5c1.2,0.7,2.7,0.7,4,0l40.6-23.5c1.2-0.7,2-2,2-3.4v-46.9
				c0-1.4-0.8-2.7-2-3.4l-40.6-23.5c-1.2-0.7-2.7-0.7-4,0l-40.6,23.5C957.7,871.1,956.9,872.4,956.9,873.9z"/>
			<path class="st2" d="M511.9,828.2v100c0,3,1.6,5.8,4.2,7.3l86.6,50c2.6,1.5,5.8,1.5,8.4,0l86.6-50c2.6-1.5,4.2-4.3,4.2-7.3v-100
				c0-3-1.6-5.8-4.2-7.3l-86.6-50c-2.6-1.5-5.8-1.5-8.4,0l-86.6,50C513.6,822.4,511.9,825.1,511.9,828.2z"/>
			<path class="st2" d="M1223.2,1007.2v132.3c0,4,2.1,7.7,5.6,9.7l114.6,66.1c3.5,2,7.7,2,11.2,0l114.6-66.1c3.5-2,5.6-5.7,5.6-9.7
				v-132.3c0-4-2.1-7.7-5.6-9.7l-114.6-66.1c-3.5-2-7.7-2-11.2,0l-114.6,66.1C1225.3,999.5,1223.2,1003.2,1223.2,1007.2z"/>
			<path class="st2" d="M702.9,765.8v29.4c0,0.9,0.5,1.7,1.2,2.1l25.5,14.7c0.8,0.4,1.7,0.4,2.5,0l25.5-14.7
				c0.8-0.4,1.2-1.3,1.2-2.1v-29.4c0-0.9-0.5-1.7-1.2-2.1l-25.5-14.7c-0.8-0.4-1.7-0.4-2.5,0l-25.5,14.7
				C703.4,764.1,702.9,764.9,702.9,765.8z"/>
			<path class="st2" d="M516.5,586.9v29.4c0,0.9,0.5,1.7,1.2,2.1l25.5,14.7c0.8,0.4,1.7,0.4,2.5,0l25.5-14.7
				c0.8-0.4,1.2-1.3,1.2-2.1v-29.4c0-0.9-0.5-1.7-1.2-2.1l-25.5-14.7c-0.8-0.4-1.7-0.4-2.5,0l-25.5,14.7
				C516.9,585.2,516.5,586.1,516.5,586.9z"/>
			<path class="st2" d="M120.8,123.6V153c0,0.9,0.5,1.7,1.2,2.1l25.5,14.7c0.8,0.4,1.7,0.4,2.5,0l25.5-14.7c0.8-0.4,1.2-1.3,1.2-2.1
				v-29.4c0-0.9-0.5-1.7-1.2-2.1L150,106.8c-0.8-0.4-1.7-0.4-2.5,0l-25.5,14.7C121.3,121.9,120.8,122.7,120.8,123.6z"/>
			<path class="st2" d="M1164.2,895.2v29.4c0,0.9,0.5,1.7,1.2,2.1l25.5,14.7c0.8,0.4,1.7,0.4,2.5,0l25.5-14.7
				c0.8-0.4,1.2-1.3,1.2-2.1v-29.4c0-0.9-0.5-1.7-1.2-2.1l-25.5-14.7c-0.8-0.4-1.7-0.4-2.5,0l-25.5,14.7
				C1164.7,893.5,1164.2,894.3,1164.2,895.2z"/>
			<path class="st2" d="M325.9,633.7v29.4c0,0.9,0.5,1.7,1.2,2.1l25.5,14.7c0.8,0.4,1.7,0.4,2.5,0l25.5-14.7
				c0.8-0.4,1.2-1.3,1.2-2.1v-29.4c0-0.9-0.5-1.7-1.2-2.1l-25.5-14.7c-0.8-0.4-1.7-0.4-2.5,0l-25.5,14.7
				C326.4,632,325.9,632.8,325.9,633.7z"/>
		</g>
		<g style="clip-path:url(#SVGID_00000152259782140973813840000004205355871468722100_);">
			<g>
				<path class="st2" d="M176.7,51.8c-6.6,0-13.1-1.7-18.9-5.1L18.5-33.7C6.8-40.5-0.4-53-0.4-66.5v-160.8
					c0-13.5,7.3-26.1,18.9-32.8l139.3-80.4c11.7-6.7,26.2-6.7,37.9,0l139.3,80.4c11.7,6.7,18.9,19.3,18.9,32.8v160.8
					c0,13.5-7.3,26.1-18.9,32.8L195.7,46.7C189.8,50.1,183.3,51.8,176.7,51.8z M176.7-334.9c-4.7,0-9.4,1.2-13.6,3.6L23.9-250.9
					c-8.4,4.8-13.6,13.9-13.6,23.6v160.8c0,9.7,5.2,18.7,13.6,23.6l139.3,80.4c8.4,4.8,18.8,4.8,27.2,0L329.6-43
					c8.4-4.8,13.6-13.9,13.6-23.6v-160.8c0-9.7-5.2-18.7-13.6-23.6l-139.3-80.4C186.1-333.7,181.4-334.9,176.7-334.9z"/>
			</g>
			<g>
				<path class="st2" d="M1496.1,415.7c-4.8,0-9.7-1.2-14-3.7l-97.2-56.1c-8.6-5-14-14.3-14-24.3V219.4c0-10,5.4-19.3,14-24.3
					l97.2-56.1c8.7-5,19.4-5,28,0l97.2,56.1c8.6,5,14,14.3,14,24.3v112.2c0,10-5.4,19.3-14,24.3l-97.2,56.1
					C1505.8,414.5,1501,415.7,1496.1,415.7z M1496.1,145.9c-3,0-6,0.8-8.7,2.3l-97.2,56.1c-5.4,3.1-8.7,8.9-8.7,15v112.2
					c0,6.2,3.3,11.9,8.7,15l97.2,56.1c5.4,3.1,12,3.1,17.4,0l97.2-56.1c5.4-3.1,8.7-8.9,8.7-15V219.4c0-6.2-3.3-11.9-8.7-15
					l-97.2-56.1C1502.1,146.7,1499.1,145.9,1496.1,145.9z"/>
			</g>
			<g>
				<path class="st2" d="M1394.3,89.6c-2.4,0-4.8-0.6-7-1.9l-36.8-21.2c-4.3-2.5-7-7.1-7-12.1V12c0-5,2.7-9.6,7-12.1l36.8-21.2
					c4.3-2.5,9.6-2.5,13.9,0L1438-0.1c4.3,2.5,7,7.1,7,12.1v42.5c0,5-2.7,9.6-7,12.1l-36.8,21.2C1399.1,89,1396.7,89.6,1394.3,89.6z
					 M1394.3-12.5c-0.6,0-1.1,0.1-1.6,0.4l-36.8,21.2c-1,0.6-1.6,1.7-1.6,2.8v42.5c0,1.2,0.6,2.2,1.6,2.8l36.8,21.2
					c1,0.6,2.3,0.6,3.3,0l36.8-21.2c1-0.6,1.6-1.7,1.6-2.8V12c0-1.2-0.6-2.2-1.6-2.8l-36.8-21.2
					C1395.4-12.4,1394.9-12.5,1394.3-12.5z"/>
			</g>
			<g>
				<path class="st2" d="M1461.3,479.2c-11.8,0-23.6-3-34.1-9.1l-269.4-155.5c-21.1-12.2-34.1-34.8-34.1-59.1V-55.7
					c0-24.3,13.1-47,34.1-59.1l269.4-155.5c21.1-12.2,47.2-12.2,68.3,0l269.4,155.5c21.1,12.2,34.1,34.8,34.1,59.1v311.1
					c0,24.3-13.1,47-34.1,59.1l-269.4,155.5C1484.9,476.2,1473.1,479.2,1461.3,479.2z M1461.3-268.8c-10,0-19.9,2.6-28.8,7.7
					L1163-105.6c-17.8,10.3-28.8,29.4-28.8,49.9v311.1c0,20.5,11,39.6,28.8,49.9l269.4,155.5c17.8,10.3,39.8,10.3,57.6,0
					l269.4-155.5c17.8-10.3,28.8-29.4,28.8-49.9V-55.7c0-20.5-11-39.6-28.8-49.9l-269.4-155.5
					C1481.2-266.2,1471.2-268.8,1461.3-268.8z"/>
			</g>
			<g>
				<path class="st2" d="M698.3,95.5c-11.8,0-23.6-3-34.1-9.1L394.7-69.2c-21.1-12.2-34.1-34.8-34.1-59.1v-311.1
					c0-24.3,13.1-47,34.1-59.1l269.4-155.5c21.1-12.2,47.2-12.2,68.3,0l269.4,155.5c21.1,12.2,34.1,34.8,34.1,59.1v311.1
					c0,24.3-13.1,47-34.1,59.1L732.4,86.3C721.9,92.4,710.1,95.5,698.3,95.5z M698.3-652.6c-10,0-19.9,2.6-28.8,7.7L400.1-489.3
					c-17.8,10.3-28.8,29.4-28.8,49.9v311.1c0,20.5,11,39.6,28.8,49.9L669.5,77.1c17.8,10.3,39.8,10.3,57.6,0L996.5-78.5
					c17.8-10.3,28.8-29.4,28.8-49.9v-311.1c0-20.5-11-39.6-28.8-49.9L727.1-644.9C718.2-650,708.2-652.6,698.3-652.6z"/>
			</g>
			<path class="st2" d="M1285.6,420.2v66.7c0,2,1.1,3.9,2.8,4.9l57.7,33.3c1.7,1,3.9,1,5.6,0l57.7-33.3c1.7-1,2.8-2.9,2.8-4.9v-66.7
				c0-2-1.1-3.9-2.8-4.9l-57.7-33.3c-1.7-1-3.9-1-5.6,0l-57.7,33.3C1286.6,416.3,1285.6,418.2,1285.6,420.2z"/>
			<path class="st2" d="M638.6-41.7V25c0,2,1.1,3.9,2.8,4.9l57.7,33.3c1.7,1,3.9,1,5.6,0l57.7-33.3c1.7-1,2.8-2.9,2.8-4.9v-66.7
				c0-2-1.1-3.9-2.8-4.9l-57.7-33.3c-1.7-1-3.9-1-5.6,0l-57.7,33.3C639.7-45.6,638.6-43.7,638.6-41.7z"/>
			<path class="st2" d="M817.8,100.9v46.9c0,1.4,0.8,2.7,2,3.4l40.6,23.5c1.2,0.7,2.7,0.7,4,0l40.6-23.5c1.2-0.7,2-2,2-3.4v-46.9
				c0-1.4-0.8-2.7-2-3.4l-40.6-23.5c-1.2-0.7-2.7-0.7-4,0l-40.6,23.5C818.5,98.2,817.8,99.5,817.8,100.9z"/>
			<path class="st2" d="M1091.8,83.6v100c0,3,1.6,5.8,4.2,7.3l86.6,50c2.6,1.5,5.8,1.5,8.4,0l86.6-50c2.6-1.5,4.2-4.3,4.2-7.3v-100
				c0-3-1.6-5.8-4.2-7.3l-86.6-50c-2.6-1.5-5.8-1.5-8.4,0l-86.6,50C1093.4,77.8,1091.8,80.6,1091.8,83.6z"/>
			<path class="st2" d="M1803.1,262.6v132.3c0,4,2.1,7.7,5.6,9.7l114.6,66.1c3.5,2,7.7,2,11.2,0l114.6-66.1c3.5-2,5.6-5.7,5.6-9.7
				V262.6c0-4-2.1-7.7-5.6-9.7l-114.6-66.1c-3.5-2-7.7-2-11.2,0L1808.6,253C1805.2,255,1803.1,258.6,1803.1,262.6z"/>
			<path class="st2" d="M1244.9,264.4v29.4c0,0.9,0.5,1.7,1.2,2.1l25.5,14.7c0.8,0.4,1.7,0.4,2.5,0l25.5-14.7
				c0.8-0.4,1.2-1.3,1.2-2.1v-29.4c0-0.9-0.5-1.7-1.2-2.1l-25.5-14.7c-0.8-0.4-1.7-0.4-2.5,0l-25.5,14.7
				C1245.4,262.7,1244.9,263.5,1244.9,264.4z"/>
			<path class="st2" d="M1446.7,611.6V641c0,0.9,0.5,1.7,1.2,2.1l25.5,14.7c0.8,0.4,1.7,0.4,2.5,0l25.5-14.7
				c0.8-0.4,1.2-1.3,1.2-2.1v-29.4c0-0.9-0.5-1.7-1.2-2.1l-25.5-14.7c-0.8-0.4-1.7-0.4-2.5,0l-25.5,14.7
				C1447.2,609.9,1446.7,610.7,1446.7,611.6z"/>
			<path class="st2" d="M834.4-6.7v29.4c0,0.9,0.5,1.7,1.2,2.1l25.5,14.7c0.8,0.4,1.7,0.4,2.5,0L889,24.8c0.8-0.4,1.2-1.3,1.2-2.1
				V-6.7c0-0.9-0.5-1.7-1.2-2.1l-25.5-14.7c-0.8-0.4-1.7-0.4-2.5,0L835.6-8.9C834.9-8.5,834.4-7.6,834.4-6.7z"/>
			<path class="st2" d="M1178.2,327.1v29.4c0,0.9,0.5,1.7,1.2,2.1l25.5,14.7c0.8,0.4,1.7,0.4,2.5,0l25.5-14.7
				c0.8-0.4,1.2-1.3,1.2-2.1v-29.4c0-0.9-0.5-1.7-1.2-2.1l-25.5-14.7c-0.8-0.4-1.7-0.4-2.5,0l-25.5,14.7
				C1178.7,325.4,1178.2,326.2,1178.2,327.1z"/>
			<path class="st2" d="M428.6,9.2v29.4c0,0.9,0.5,1.7,1.2,2.1l25.5,14.7c0.8,0.4,1.7,0.4,2.5,0l25.5-14.7c0.8-0.4,1.2-1.3,1.2-2.1
				V9.2c0-0.9-0.5-1.7-1.2-2.1L457.8-7.7c-0.8-0.4-1.7-0.4-2.5,0L429.9,7C429.1,7.5,428.6,8.3,428.6,9.2z"/>
		</g>
	</g>
	<g>
		<defs>
			<polygon id="SVGID_00000007394494201974588600000002663384709219824280_" points="1281.8,1067.7 1.8,1067.7 1.8,151.1 
				1281.8,817.3 			"/>
		</defs>
		<clipPath id="SVGID_00000026165256854633150060000009073626259217616062_">
			<use xlink:href="#SVGID_00000007394494201974588600000002663384709219824280_"  style="overflow:visible;"/>
		</clipPath>
		<g style="clip-path:url(#SVGID_00000026165256854633150060000009073626259217616062_);">
			<g>
				
					<image style="overflow:visible;opacity:0.2;" width="2371" height="2635" xlink:href="9B7693FC.png"  transform="matrix(0.24 0 0 0.24 -420.69 300.84)">
				</image>
				<g>
					<g>
						<path class="st4" d="M-131.7,912.1c-11.2,0-22.4-2.9-32.4-8.7l-204.6-118.1c-20-11.5-32.4-33-32.4-56.1V492.9
							c0-23.1,12.4-44.6,32.4-56.1L-164,318.7c20-11.5,44.8-11.5,64.8,0l204.6,118.1c20,11.5,32.4,33,32.4,56.1v236.3
							c0,23.1-12.4,44.6-32.4,56.1L-99.3,903.4C-109.3,909.2-120.5,912.1-131.7,912.1z M-131.7,344c-5.3,0-10.7,1.4-15.4,4.1
							l-204.6,118.1c-9.5,5.5-15.4,15.7-15.4,26.7v236.3c0,11,5.9,21.2,15.4,26.7L-147.1,874c9.5,5.5,21.3,5.5,30.8,0L88.4,755.9
							c9.5-5.5,15.4-15.7,15.4-26.7V492.9c0-11-5.9-21.2-15.4-26.7l-204.6-118.1C-121,345.3-126.3,344-131.7,344z"/>
						<path class="st5" d="M89.4,464.4l-204.6-118.1c-5-2.9-10.7-4.4-16.5-4.4c-5.8,0-11.5,1.5-16.5,4.4l-204.6,118.1
							c-10.2,5.9-16.5,16.8-16.5,28.6v236.3c0,11.7,6.3,22.7,16.5,28.6l204.6,118.1c5,2.9,10.7,4.4,16.5,4.4c0,0,0,0,0,0
							c5.8,0,11.5-1.5,16.5-4.4L89.4,757.7c10.2-5.9,16.5-16.8,16.5-28.6V492.9C105.9,481.2,99.6,470.2,89.4,464.4z M103.8,729.2
							c0,11-5.9,21.2-15.4,26.7L-116.2,874c-9.5,5.5-21.3,5.5-30.8,0l-204.6-118.1c-9.5-5.5-15.4-15.7-15.4-26.7V492.9
							c0-11,5.9-21.2,15.4-26.7l204.6-118.1c4.8-2.7,10.1-4.1,15.4-4.1c5.3,0,10.7,1.4,15.4,4.1L88.4,466.2
							c9.5,5.5,15.4,15.7,15.4,26.7V729.2z M105.3,436.8L-99.3,318.7c-20-11.5-44.8-11.5-64.8,0l-204.6,118.1
							c-20,11.5-32.4,33-32.4,56.1v236.3c0,23.1,12.4,44.6,32.4,56.1L-164,903.4c10,5.8,21.2,8.7,32.4,8.7c11.2,0,22.4-2.9,32.4-8.7
							l204.6-118.1c20-11.5,32.4-33,32.4-56.1V492.9C137.7,469.9,125.3,448.4,105.3,436.8z M135.6,729.2c0,22.3-12,43.1-31.3,54.3
							l-204.6,118.1c-9.5,5.5-20.3,8.4-31.3,8.4c-11,0-21.8-2.9-31.3-8.4l-204.6-118.1c-19.3-11.2-31.3-31.9-31.3-54.3V492.9
							c0-22.3,12-43.1,31.3-54.3L-163,320.5c9.5-5.5,20.3-8.4,31.3-8.4c11,0,21.8,2.9,31.3,8.4l204.6,118.1
							c19.3,11.2,31.3,31.9,31.3,54.3V729.2z"/>
					</g>
				</g>
			</g>
			<g>
				
					<image style="overflow:visible;opacity:0.2;" width="1347" height="1519" xlink:href="9B7693FD.png"  transform="matrix(0.24 0 0 0.24 753.63 873.96)">
				</image>
				<g>
					<g>
						<path class="st0" d="M773.4,973.2v154.1c0,4.6,2.5,8.9,6.5,11.3l133.5,77.1c4,2.3,9,2.3,13,0l133.5-77.1
							c4-2.3,6.5-6.6,6.5-11.3V973.2c0-4.6-2.5-8.9-6.5-11.3l-133.5-77.1c-4-2.3-9-2.3-13,0L779.9,962
							C775.8,964.3,773.4,968.6,773.4,973.2z"/>
						<path class="st6" d="M1052.4,957.7l-118.7-68.5c-8.6-5-19.2-5-27.7,0l-118.7,68.5c-8.6,5-13.9,14.1-13.9,24v137.1
							c0,9.9,5.3,19.1,13.9,24l118.7,68.5c8.6,5,19.2,5,27.7,0l118.7-68.5c8.6-5,13.9-14.1,13.9-24V981.8
							C1066.3,971.9,1061,962.7,1052.4,957.7z M1064.2,1118.9c0,9.1-4.9,17.6-12.8,22.2l-118.7,68.5c-3.9,2.2-8.3,3.4-12.8,3.4
							c-4.5,0-8.9-1.2-12.8-3.4L788.3,1141c-7.9-4.6-12.8-13.1-12.8-22.2V981.8c0-9.1,4.9-17.6,12.8-22.2L907,891
							c3.9-2.2,8.3-3.4,12.8-3.4c4.5,0,8.9,1.2,12.8,3.4l118.7,68.5c7.9,4.6,12.8,13.1,12.8,22.2V1118.9z"/>
					</g>
				</g>
			</g>
			<g>
				
					<image style="overflow:visible;opacity:0.2;" width="1347" height="1519" xlink:href="9B7693FB.png"  transform="matrix(0.24 0 0 0.24 -222.93 129.96)">
				</image>
				<g>
					<g>
						<path class="st0" d="M-203.2,229.2v154.1c0,4.6,2.5,8.9,6.5,11.3l133.5,77.1c4,2.3,9,2.3,13,0l133.5-77.1
							c4-2.3,6.5-6.6,6.5-11.3V229.2c0-4.6-2.5-8.9-6.5-11.3l-133.5-77.1c-4-2.3-9-2.3-13,0l-133.5,77.1
							C-200.8,220.2-203.2,224.5-203.2,229.2z"/>
						<path class="st6" d="M75.9,213.7l-118.7-68.5c-8.6-5-19.2-5-27.7,0l-118.7,68.5c-8.6,5-13.9,14.1-13.9,24v137.1
							c0,9.9,5.3,19.1,13.9,24l118.7,68.5c8.6,5,19.2,5,27.7,0l118.7-68.5c8.6-5,13.9-14.1,13.9-24V237.7
							C89.7,227.8,84.4,218.6,75.9,213.7z M87.6,374.8c0,9.1-4.9,17.6-12.8,22.2l-118.7,68.5c-3.9,2.2-8.3,3.4-12.8,3.4
							c-4.5,0-8.9-1.2-12.8-3.4L-188.3,397c-7.9-4.6-12.8-13.1-12.8-22.2V237.7c0-9.1,4.9-17.6,12.8-22.2L-69.6,147
							c3.9-2.2,8.3-3.4,12.8-3.4c4.5,0,8.9,1.2,12.8,3.4l118.7,68.5c7.9,4.6,12.8,13.1,12.8,22.2V374.8z"/>
					</g>
				</g>
			</g>
			<g>
				
					<image style="overflow:visible;opacity:0.4;" width="3181" height="3571" xlink:href="9B769404.png"  transform="matrix(0.24 0 0 0.24 -169.9272 595.7628)">
				</image>
				<g>
					<g>
						<path class="st2" d="M-110.5,839.1v349.8c0,10.5,5.6,20.3,14.7,25.5l302.9,174.9c9.1,5.3,20.4,5.3,29.5,0l302.9-174.9
							c9.1-5.3,14.7-15,14.7-25.5V839.1c0-10.5-5.6-20.3-14.7-25.5L236.7,638.7c-9.1-5.3-20.4-5.3-29.5,0L-95.7,813.6
							C-104.9,818.8-110.5,828.6-110.5,839.1z"/>
						<path class="st6" d="M522.9,803.9L253.4,648.3c-19.5-11.2-43.5-11.2-63,0L-79,803.9c-19.5,11.2-31.5,32-31.5,54.5v311.1
							c0,22.5,12,43.3,31.5,54.5l269.4,155.6c19.5,11.2,43.5,11.2,63,0l269.4-155.6c19.5-11.2,31.5-32,31.5-54.5V858.4
							C554.3,835.9,542.3,815.1,522.9,803.9z M551.2,1169.5c0,21.3-11.5,41.2-29.9,51.8l-269.4,155.6c-9.1,5.2-19.4,8-29.9,8
							s-20.8-2.8-29.9-8l-269.4-155.6c-18.5-10.7-29.9-30.5-29.9-51.8V858.4c0-21.3,11.5-41.2,29.9-51.8L192,651
							c9.1-5.2,19.4-8,29.9-8s20.8,2.8,29.9,8l269.4,155.6c18.5,10.7,29.9,30.5,29.9,51.8V1169.5z"/>
					</g>
				</g>
			</g>
			<g>
				
					<image style="overflow:visible;opacity:0.2;" width="933" height="1046" xlink:href="9B769407.png"  transform="matrix(0.24 0 0 0.24 26.67 399.96)">
				</image>
				<g>
					<g>
						<path class="st4" d="M46.4,468.6v101.8c0,3.1,1.6,5.9,4.3,7.4l88.2,50.9c2.7,1.5,5.9,1.5,8.6,0l88.2-50.9
							c2.7-1.5,4.3-4.4,4.3-7.4V468.6c0-3.1-1.6-5.9-4.3-7.4l-88.2-50.9c-2.7-1.5-5.9-1.5-8.6,0l-88.2,50.9
							C48,462.7,46.4,465.6,46.4,468.6z"/>
						<path class="st6" d="M230.8,458.4l-78.4-45.3c-5.7-3.3-12.7-3.3-18.3,0l-78.4,45.3c-5.7,3.3-9.2,9.3-9.2,15.9v90.6
							c0,6.5,3.5,12.6,9.2,15.9L134,626c5.7,3.3,12.7,3.3,18.3,0l78.4-45.3c5.7-3.3,9.2-9.3,9.2-15.9v-90.6
							C239.9,467.7,236.4,461.6,230.8,458.4z M237.8,564.8c0,5.8-3.1,11.1-8.1,14l-78.4,45.3c-2.5,1.4-5.3,2.2-8.1,2.2
							s-5.6-0.8-8.1-2.2l-78.4-45.3c-5-2.9-8.1-8.3-8.1-14v-90.6c0-5.8,3.1-11.1,8.1-14l78.4-45.3c2.5-1.4,5.3-2.2,8.1-2.2
							s5.6,0.7,8.1,2.2l78.4,45.3c5,2.9,8.1,8.3,8.1,14V564.8z"/>
					</g>
				</g>
			</g>
			<g>
				
					<image style="overflow:visible;opacity:0.6;" width="2306" height="2543" xlink:href="9B769405.png"  transform="matrix(0.24 0 0 0.24 -110.1672 781.7628)">
				</image>
				<g>
					<g>
						<path class="st0" d="M-50.6,960.4v212.8c0,15.4,8.2,29.6,21.5,37.3l184.3,106.4c13.3,7.7,29.7,7.7,43.1,0l184.3-106.4
							c13.3-7.7,21.5-21.9,21.5-37.3V960.4c0-15.4-8.2-29.6-21.5-37.3L198.2,816.8c-13.3-7.7-29.7-7.7-43.1,0L-29.1,923.1
							C-42.4,930.8-50.6,945.1-50.6,960.4z"/>
						<path class="st6" d="M382.5,923.1L198.2,816.8c-13.3-7.7-29.7-7.7-43.1,0L-29.1,923.1c-13.3,7.7-21.5,21.9-21.5,37.3v212.8
							c0,15.4,8.2,29.6,21.5,37.3l184.3,106.4c13.3,7.7,29.7,7.7,43.1,0l184.3-106.4c13.3-7.7,21.5-21.9,21.5-37.3V960.4
							C404,945.1,395.8,930.8,382.5,923.1z M401.9,1173.2c0,14.6-7.8,28.2-20.5,35.4L197.2,1315c-6.2,3.6-13.3,5.5-20.5,5.5
							c-7.2,0-14.2-1.9-20.5-5.5L-28,1208.7c-12.6-7.3-20.5-20.9-20.5-35.4V960.4c0-14.6,7.8-28.2,20.5-35.4l184.3-106.4
							c6.2-3.6,13.3-5.5,20.5-5.5c7.2,0,14.3,1.9,20.5,5.5L381.4,925c12.6,7.3,20.5,20.9,20.5,35.4V1173.2z"/>
					</g>
				</g>
			</g>
			<g>
				
					<image style="overflow:visible;opacity:0.2;" width="2371" height="2634" xlink:href="9B76940B.png"  transform="matrix(0.24 0 0 0.24 -310.77 863.64)">
				</image>
				<g>
					<g>
						<path class="st4" d="M-21.6,1474.8c-11.2,0-22.4-2.9-32.4-8.7L-258.6,1348c-20-11.5-32.4-33-32.4-56.1v-236.3
							c0-23.1,12.4-44.6,32.4-56.1L-54,881.4c20-11.5,44.8-11.5,64.8,0l204.6,118.1c20,11.5,32.4,33,32.4,56.1v236.3
							c0,23.1-12.4,44.6-32.4,56.1L10.8,1466.1C0.8,1471.9-10.4,1474.8-21.6,1474.8z M-21.6,906.7c-5.3,0-10.7,1.4-15.4,4.1
							l-204.6,118.1c-9.5,5.5-15.4,15.7-15.4,26.7v236.3c0,11,5.9,21.2,15.4,26.7l204.6,118.1c9.5,5.5,21.3,5.5,30.8,0l204.6-118.1
							c9.5-5.5,15.4-15.7,15.4-26.7v-236.3c0-11-5.9-21.2-15.4-26.7L-6.2,910.8C-11,908-16.3,906.7-21.6,906.7z"/>
						<path class="st5" d="M199.5,1027.1L-5.1,908.9c-5-2.9-10.7-4.4-16.5-4.4c-5.8,0-11.5,1.5-16.5,4.4l-204.6,118.1
							c-10.2,5.9-16.5,16.8-16.5,28.6v236.3c0,11.7,6.3,22.7,16.5,28.6l204.6,118.1c5,2.9,10.7,4.4,16.5,4.4c0,0,0,0,0,0
							c5.8,0,11.5-1.5,16.5-4.4l204.6-118.1c10.2-5.9,16.5-16.8,16.5-28.6v-236.3C215.9,1043.9,209.6,1032.9,199.5,1027.1z
							 M213.8,1291.9c0,11-5.9,21.2-15.4,26.7L-6.2,1436.7c-9.5,5.5-21.3,5.5-30.8,0l-204.6-118.1c-9.5-5.5-15.4-15.7-15.4-26.7
							v-236.3c0-11,5.9-21.2,15.4-26.7l204.6-118.1c4.8-2.7,10.1-4.1,15.4-4.1c5.3,0,10.7,1.4,15.4,4.1l204.6,118.1
							c9.5,5.5,15.4,15.7,15.4,26.7V1291.9z M215.4,999.5L10.8,881.4c-20-11.5-44.8-11.5-64.8,0l-204.6,118.1
							c-20,11.5-32.4,33-32.4,56.1v236.3c0,23.1,12.4,44.6,32.4,56.1L-54,1466.1c10,5.8,21.2,8.7,32.4,8.7c11.2,0,22.4-2.9,32.4-8.7
							L215.4,1348c20-11.5,32.4-33,32.4-56.1v-236.3C247.7,1032.6,235.3,1011.1,215.4,999.5z M245.6,1291.9
							c0,22.3-12,43.1-31.3,54.3L9.7,1464.3c-9.5,5.5-20.3,8.4-31.3,8.4c-11,0-21.8-2.9-31.3-8.4l-204.6-118.1
							c-19.3-11.2-31.3-31.9-31.3-54.3v-236.3c0-22.3,12-43.1,31.3-54.3L-53,883.2c9.5-5.5,20.3-8.4,31.3-8.4
							c11,0,21.8,2.9,31.3,8.4l204.6,118.1c19.3,11.2,31.3,31.9,31.3,54.3V1291.9z"/>
					</g>
				</g>
			</g>
			<g>
				
					<image style="overflow:visible;opacity:0.4;" width="1632" height="1804" xlink:href="9B76940C.png"  transform="matrix(0.24 0 0 0.24 -294.2472 643.0428)">
				</image>
				<g>
					<g>
						<path class="st4" d="M-234.8,772.1v154.1c0,4.6,2.5,8.9,6.5,11.3l133.5,77.1c4,2.3,9,2.3,13,0l133.5-77.1
							c4-2.3,6.5-6.6,6.5-11.3V772.1c0-4.6-2.5-8.9-6.5-11.3l-133.5-77.1c-4-2.3-9-2.3-13,0l-133.5,77.1
							C-232.3,763.1-234.8,767.4-234.8,772.1z"/>
						<path class="st6" d="M44.3,756.6L-74.4,688c-8.6-5-19.2-5-27.7,0l-118.7,68.5c-8.6,5-13.9,14.1-13.9,24v137.1
							c0,9.9,5.3,19.1,13.9,24l118.7,68.5c8.6,5,19.2,5,27.7,0l118.7-68.5c8.6-5,13.9-14.1,13.9-24V780.6
							C58.2,770.7,52.9,761.5,44.3,756.6z M56,917.7c0,9.1-4.9,17.6-12.8,22.2l-118.7,68.5c-3.9,2.2-8.3,3.4-12.8,3.4
							c-4.5,0-8.9-1.2-12.8-3.4l-118.7-68.5c-7.9-4.6-12.8-13.1-12.8-22.2V780.6c0-9.1,4.9-17.6,12.8-22.2l118.7-68.5
							c3.9-2.2,8.3-3.4,12.8-3.4c4.5,0,8.9,1.2,12.8,3.4l118.7,68.5C51.1,763,56,771.5,56,780.6V917.7z"/>
					</g>
				</g>
			</g>
			<g>
				
					<image style="overflow:visible;opacity:0.2;" width="932" height="1046" xlink:href="9B76940F.png"  transform="matrix(0.24 0 0 0.24 485.07 994.44)">
				</image>
				<g>
					<g>
						<path class="st4" d="M504.7,1063v101.8c0,3.1,1.6,5.9,4.3,7.4l88.2,50.9c2.7,1.5,5.9,1.5,8.6,0l88.2-50.9
							c2.7-1.5,4.3-4.4,4.3-7.4V1063c0-3.1-1.6-5.9-4.3-7.4l-88.2-50.9c-2.7-1.5-5.9-1.5-8.6,0l-88.2,50.9
							C506.4,1057.1,504.7,1059.9,504.7,1063z"/>
						<path class="st6" d="M689.1,1052.7l-78.4-45.3c-5.7-3.3-12.7-3.3-18.3,0l-78.4,45.3c-5.7,3.3-9.2,9.3-9.2,15.9v90.6
							c0,6.5,3.5,12.6,9.2,15.9l78.4,45.3c5.7,3.3,12.7,3.3,18.3,0l78.4-45.3c5.7-3.3,9.2-9.3,9.2-15.9v-90.6
							C698.3,1062.1,694.8,1056,689.1,1052.7z M696.1,1159.2c0,5.8-3.1,11.1-8.1,14l-78.4,45.3c-2.5,1.4-5.3,2.2-8.1,2.2
							c-2.8,0-5.6-0.8-8.1-2.2l-78.4-45.3c-5-2.9-8.1-8.3-8.1-14v-90.6c0-5.8,3.1-11.1,8.1-14l78.4-45.3c2.5-1.4,5.3-2.2,8.1-2.2
							c2.8,0,5.6,0.7,8.1,2.2l78.4,45.3c5,2.9,8.1,8.3,8.1,14V1159.2z"/>
					</g>
				</g>
			</g>
			<g>
				
					<image style="overflow:visible;opacity:0.2;" width="933" height="1047" xlink:href="782363CB.png"  transform="matrix(0.24 0 0 0.24 275.55 813)">
				</image>
				<g>
					<g>
						<path class="st4" d="M295.3,881.7v101.8c0,3.1,1.6,5.9,4.3,7.4l88.2,50.9c2.7,1.5,5.9,1.5,8.6,0l88.2-50.9
							c2.7-1.5,4.3-4.4,4.3-7.4V881.7c0-3.1-1.6-5.9-4.3-7.4l-88.2-50.9c-2.7-1.5-5.9-1.5-8.6,0l-88.2,50.9
							C296.9,875.8,295.3,878.7,295.3,881.7z"/>
						<path class="st6" d="M479.7,871.5l-78.4-45.3c-5.7-3.3-12.7-3.3-18.3,0l-78.4,45.3c-5.7,3.3-9.2,9.3-9.2,15.9v90.6
							c0,6.5,3.5,12.6,9.2,15.9l78.4,45.3c5.7,3.3,12.7,3.3,18.3,0l78.4-45.3c5.7-3.3,9.2-9.3,9.2-15.9v-90.6
							C488.8,880.8,485.3,874.8,479.7,871.5z M486.7,977.9c0,5.8-3.1,11.1-8.1,14l-78.4,45.3c-2.5,1.4-5.3,2.2-8.1,2.2
							s-5.6-0.8-8.1-2.2L305.5,992c-5-2.9-8.1-8.3-8.1-14v-90.6c0-5.8,3.1-11.1,8.1-14L384,828c2.5-1.4,5.3-2.2,8.1-2.2
							s5.6,0.7,8.1,2.2l78.4,45.3c5,2.9,8.1,8.3,8.1,14V977.9z"/>
					</g>
				</g>
			</g>
			<g>
				
					<image style="overflow:visible;opacity:0.1;" width="494" height="553" xlink:href="782363C9.png"  transform="matrix(0.24 0 0 0.24 340.59 683.4)">
				</image>
				<g>
					<g>
						<path class="st4" d="M351.7,721.5v52.8c0,1.6,0.8,3.1,2.2,3.9l45.7,26.4c1.4,0.8,3.1,0.8,4.5,0l45.7-26.4
							c1.4-0.8,2.2-2.3,2.2-3.9v-52.8c0-1.6-0.8-3.1-2.2-3.9l-45.7-26.4c-1.4-0.8-3.1-0.8-4.5,0L354,717.6
							C352.6,718.4,351.7,719.9,351.7,721.5z"/>
						<path class="st6" d="M447.3,716.2l-40.7-23.5c-2.9-1.7-6.6-1.7-9.5,0l-40.7,23.5c-2.9,1.7-4.8,4.8-4.8,8.2v47
							c0,3.4,1.8,6.5,4.8,8.2l40.7,23.5c2.9,1.7,6.6,1.7,9.5,0l40.7-23.5c2.9-1.7,4.8-4.8,4.8-8.2v-47
							C452.1,721,450.3,717.9,447.3,716.2z M449.9,771.3c0,2.6-1.4,5.1-3.7,6.4l-40.7,23.5c-1.1,0.6-2.4,1-3.7,1
							c-1.3,0-2.6-0.3-3.7-1l-40.7-23.5c-2.3-1.3-3.7-3.8-3.7-6.4v-47c0-2.6,1.4-5.1,3.7-6.4l40.7-23.5c1.1-0.6,2.4-1,3.7-1
							c1.3,0,2.6,0.3,3.7,1l40.7,23.5c2.3,1.3,3.7,3.8,3.7,6.4V771.3z"/>
					</g>
				</g>
			</g>
			<g>
				
					<image style="overflow:visible;opacity:0.2;" width="469" height="528" xlink:href="782363CF.png"  transform="matrix(0.24 0 0 0.24 716.31 1013.04)">
				</image>
				<g>
					<g>
						<path class="st4" d="M725.3,1046.9v52.8c0,1.6,0.8,3.1,2.2,3.9l45.7,26.4c1.4,0.8,3.1,0.8,4.5,0l45.7-26.4
							c1.4-0.8,2.2-2.3,2.2-3.9v-52.8c0-1.6-0.8-3.1-2.2-3.9l-45.7-26.4c-1.4-0.8-3.1-0.8-4.5,0l-45.7,26.4
							C726.2,1043.8,725.3,1045.3,725.3,1046.9z"/>
						<path class="st6" d="M820.9,1041.6l-40.7-23.5c-2.9-1.7-6.6-1.7-9.5,0l-40.7,23.5c-2.9,1.7-4.8,4.8-4.8,8.2v47
							c0,3.4,1.8,6.5,4.8,8.2l40.7,23.5c2.9,1.7,6.6,1.7,9.5,0l40.7-23.5c2.9-1.7,4.8-4.8,4.8-8.2v-47
							C825.7,1046.4,823.9,1043.3,820.9,1041.6z M823.5,1096.8c0,2.6-1.4,5.1-3.7,6.4l-40.7,23.5c-1.1,0.6-2.4,1-3.7,1
							c-1.3,0-2.6-0.3-3.7-1l-40.7-23.5c-2.3-1.3-3.7-3.8-3.7-6.4v-47c0-2.6,1.4-5.1,3.7-6.4l40.7-23.5c1.1-0.6,2.4-1,3.7-1
							c1.3,0,2.6,0.3,3.7,1l40.7,23.5c2.3,1.3,3.7,3.8,3.7,6.4V1096.8z"/>
					</g>
				</g>
			</g>
			<g>
				
					<image style="overflow:visible;opacity:0.1;" width="494" height="553" xlink:href="782363CA.png"  transform="matrix(0.24 0 0 0.24 1138.35 976.92)">
				</image>
				<g>
					<g>
						<path class="st4" d="M1149.4,1015v52.8c0,1.6,0.8,3.1,2.2,3.9l45.7,26.4c1.4,0.8,3.1,0.8,4.5,0l45.7-26.4
							c1.4-0.8,2.2-2.3,2.2-3.9V1015c0-1.6-0.8-3.1-2.2-3.9l-45.7-26.4c-1.4-0.8-3.1-0.8-4.5,0l-45.7,26.4
							C1150.2,1011.9,1149.4,1013.4,1149.4,1015z"/>
						<path class="st6" d="M1245,1009.7l-40.7-23.5c-2.9-1.7-6.6-1.7-9.5,0l-40.7,23.5c-2.9,1.7-4.8,4.8-4.8,8.2v47
							c0,3.4,1.8,6.5,4.8,8.2l40.7,23.5c2.9,1.7,6.6,1.7,9.5,0l40.7-23.5c2.9-1.7,4.8-4.8,4.8-8.2v-47
							C1249.7,1014.5,1247.9,1011.4,1245,1009.7z M1247.6,1064.9c0,2.6-1.4,5.1-3.7,6.4l-40.7,23.5c-1.1,0.6-2.4,1-3.7,1
							s-2.6-0.3-3.7-1l-40.7-23.5c-2.3-1.3-3.7-3.8-3.7-6.4v-47c0-2.6,1.4-5.1,3.7-6.4l40.7-23.5c1.1-0.6,2.4-1,3.7-1s2.6,0.3,3.7,1
							l40.7,23.5c2.3,1.3,3.7,3.8,3.7,6.4V1064.9z"/>
					</g>
				</g>
			</g>
			<g>
				
					<image style="overflow:visible;opacity:0.1;" width="494" height="553" xlink:href="782363D5.png"  transform="matrix(0.24 0 0 0.24 54.03 269.16)">
				</image>
				<g>
					<g>
						<path class="st4" d="M65.1,307v52.8c0,1.6,0.8,3.1,2.2,3.9l45.7,26.4c1.4,0.8,3.1,0.8,4.5,0l45.7-26.4
							c1.4-0.8,2.2-2.3,2.2-3.9V307c0-1.6-0.8-3.1-2.2-3.9l-45.7-26.4c-1.4-0.8-3.1-0.8-4.5,0l-45.7,26.4
							C66,304,65.1,305.4,65.1,307z"/>
						<path class="st6" d="M160.7,301.7l-40.7-23.5c-2.9-1.7-6.6-1.7-9.5,0l-40.7,23.5c-2.9,1.7-4.8,4.8-4.8,8.2v47
							c0,3.4,1.8,6.5,4.8,8.2l40.7,23.5c2.9,1.7,6.6,1.7,9.5,0l40.7-23.5c2.9-1.7,4.8-4.8,4.8-8.2v-47
							C165.5,306.6,163.7,303.4,160.7,301.7z M163.3,356.9c0,2.6-1.4,5.1-3.7,6.4L119,386.8c-1.1,0.6-2.4,1-3.7,1s-2.6-0.3-3.7-1
							L71,363.3c-2.3-1.3-3.7-3.8-3.7-6.4v-47c0-2.6,1.4-5.1,3.7-6.4l40.7-23.5c1.1-0.6,2.4-1,3.7-1s2.6,0.3,3.7,1l40.7,23.5
							c2.3,1.3,3.7,3.8,3.7,6.4V356.9z"/>
					</g>
				</g>
			</g>
			<g>
				
					<image style="overflow:visible;opacity:0.1;" width="494" height="553" xlink:href="782363D6.png"  transform="matrix(0.24 0 0 0.24 115.47 919.08)">
				</image>
				<g>
					<g>
						<path class="st4" d="M126.5,957.1v52.8c0,1.6,0.8,3.1,2.2,3.9l45.7,26.4c1.4,0.8,3.1,0.8,4.5,0l45.7-26.4
							c1.4-0.8,2.2-2.3,2.2-3.9v-52.8c0-1.6-0.8-3.1-2.2-3.9l-45.7-26.4c-1.4-0.8-3.1-0.8-4.5,0l-45.7,26.4
							C127.4,954,126.5,955.5,126.5,957.1z"/>
						<path class="st6" d="M222.1,951.7l-40.7-23.5c-2.9-1.7-6.6-1.7-9.5,0l-40.7,23.5c-2.9,1.7-4.8,4.8-4.8,8.2v47
							c0,3.4,1.8,6.5,4.8,8.2l40.7,23.5c2.9,1.7,6.6,1.7,9.5,0l40.7-23.5c2.9-1.7,4.8-4.8,4.8-8.2v-47
							C226.9,956.6,225.1,953.4,222.1,951.7z M224.8,1006.9c0,2.6-1.4,5.1-3.7,6.4l-40.7,23.5c-1.1,0.6-2.4,1-3.7,1
							c-1.3,0-2.6-0.3-3.7-1l-40.7-23.5c-2.3-1.3-3.7-3.8-3.7-6.4v-47c0-2.6,1.4-5.1,3.7-6.4l40.7-23.5c1.1-0.6,2.4-1,3.7-1
							c1.3,0,2.6,0.3,3.7,1l40.7,23.5c2.3,1.3,3.7,3.8,3.7,6.4V1006.9z"/>
					</g>
				</g>
			</g>
		</g>
	</g>
	<g>
		<defs>
			<rect id="SVGID_00000069362013693204597640000000893729836377103747_" x="835.8" width="767.5" height="744.7"/>
		</defs>
		<clipPath id="SVGID_00000173875708751402823160000006737666170541609347_">
			<use xlink:href="#SVGID_00000069362013693204597640000000893729836377103747_"  style="overflow:visible;"/>
		</clipPath>
		<g style="clip-path:url(#SVGID_00000173875708751402823160000006737666170541609347_);">
			<g>
				
					<image style="overflow:visible;opacity:0.2;" width="933" height="1046" xlink:href="782363D7.png"  transform="matrix(0.24 0 0 0.24 1594.11 280.44)">
				</image>
				<g>
					<g>
						<path class="st4" d="M1613.9,349.1V451c0,3.1,1.6,5.9,4.3,7.4l88.2,50.9c2.7,1.5,5.9,1.5,8.6,0l88.2-50.9
							c2.7-1.5,4.3-4.4,4.3-7.4V349.1c0-3.1-1.6-5.9-4.3-7.4l-88.2-50.9c-2.7-1.5-5.9-1.5-8.6,0l-88.2,50.9
							C1615.5,343.2,1613.9,346.1,1613.9,349.1z"/>
						<path class="st6" d="M1798.2,338.9l-78.4-45.3c-5.7-3.3-12.7-3.3-18.3,0l-78.4,45.3c-5.7,3.3-9.2,9.3-9.2,15.9v90.6
							c0,6.5,3.5,12.6,9.2,15.9l78.4,45.3c5.7,3.3,12.7,3.3,18.3,0l78.4-45.3c5.7-3.3,9.2-9.3,9.2-15.9v-90.6
							C1807.4,348.2,1803.9,342.2,1798.2,338.9z M1805.3,445.3c0,5.8-3.1,11.1-8.1,14l-78.4,45.3c-2.5,1.4-5.3,2.2-8.1,2.2
							c-2.8,0-5.6-0.8-8.1-2.2l-78.4-45.3c-5-2.9-8.1-8.3-8.1-14v-90.6c0-5.8,3.1-11.1,8.1-14l78.4-45.3c2.5-1.4,5.3-2.2,8.1-2.2
							c2.8,0,5.6,0.7,8.1,2.2l78.4,45.3c5,2.9,8.1,8.3,8.1,14V445.3z"/>
					</g>
				</g>
			</g>
			<g>
				
					<image style="overflow:visible;opacity:0.2;" width="2371" height="2635" xlink:href="782363D9.png"  transform="matrix(0.24 0 0 0.24 1510.35 60.36)">
				</image>
				<g>
					<g>
						<path class="st4" d="M1799.4,671.6c-11.2,0-22.4-2.9-32.4-8.7l-204.6-118.1c-20-11.5-32.4-33-32.4-56.1V252.5
							c0-23.1,12.4-44.6,32.4-56.1l204.6-118.1c20-11.5,44.8-11.5,64.8,0l204.6,118.1c20,11.5,32.4,33,32.4,56.1v236.3
							c0,23.1-12.4,44.6-32.4,56.1l-204.6,118.1C1821.9,668.7,1810.6,671.6,1799.4,671.6z M1799.4,103.5c-5.3,0-10.7,1.4-15.4,4.1
							l-204.6,118.1c-9.5,5.5-15.4,15.7-15.4,26.7v236.3c0,11,5.9,21.2,15.4,26.7L1784,633.6c9.5,5.5,21.3,5.5,30.8,0l204.6-118.1
							c9.5-5.5,15.4-15.7,15.4-26.7V252.5c0-11-5.9-21.2-15.4-26.7l-204.6-118.1C1810.1,104.9,1804.8,103.5,1799.4,103.5z"/>
						<path class="st5" d="M2020.5,223.9l-204.6-118.1c-5-2.9-10.7-4.4-16.5-4.4c-5.8,0-11.5,1.5-16.5,4.4l-204.6,118.1
							c-10.2,5.9-16.5,16.8-16.5,28.6v236.3c0,11.7,6.3,22.7,16.5,28.6L1783,635.4c5,2.9,10.7,4.4,16.5,4.4c0,0,0,0,0,0
							c5.8,0,11.5-1.5,16.5-4.4l204.6-118.1c10.2-5.9,16.5-16.8,16.5-28.6V252.5C2037,240.7,2030.7,229.8,2020.5,223.9z
							 M2034.9,488.7c0,11-5.9,21.2-15.4,26.7l-204.6,118.1c-9.5,5.5-21.3,5.5-30.8,0l-204.6-118.1c-9.5-5.5-15.4-15.7-15.4-26.7
							V252.5c0-11,5.9-21.2,15.4-26.7L1784,107.6c4.8-2.7,10.1-4.1,15.4-4.1c5.3,0,10.7,1.4,15.4,4.1l204.6,118.1
							c9.5,5.5,15.4,15.7,15.4,26.7V488.7z M2036.4,196.4L1831.8,78.2c-20-11.5-44.8-11.5-64.8,0l-204.6,118.1
							c-20,11.5-32.4,33-32.4,56.1v236.3c0,23.1,12.4,44.6,32.4,56.1l204.6,118.1c10,5.8,21.2,8.7,32.4,8.7
							c11.2,0,22.4-2.9,32.4-8.7l204.6-118.1c20-11.5,32.4-33,32.4-56.1V252.5C2068.8,229.4,2056.4,207.9,2036.4,196.4z
							 M2066.7,488.7c0,22.3-12,43.1-31.3,54.3l-204.6,118.1c-9.5,5.5-20.3,8.4-31.3,8.4c-11,0-21.8-2.9-31.3-8.4L1563.5,543
							c-19.3-11.2-31.3-31.9-31.3-54.3V252.5c0-22.3,12-43.1,31.3-54.3l204.6-118.1c9.5-5.5,20.3-8.4,31.3-8.4
							c11,0,21.8,2.9,31.3,8.4l204.6,118.1c19.3,11.2,31.3,31.9,31.3,54.3V488.7z"/>
					</g>
				</g>
			</g>
			<g>
				
					<image style="overflow:visible;opacity:0.2;" width="2371" height="2634" xlink:href="782363DB.png"  transform="matrix(0.24 0 0 0.24 996.75 -406.68)">
				</image>
				<g>
					<g>
						<path class="st4" d="M1285.9,204.4c-11.2,0-22.4-2.9-32.4-8.7L1048.9,77.6c-20-11.5-32.4-33-32.4-56.1v-236.3
							c0-23.1,12.4-44.6,32.4-56.1L1253.5-389c20-11.5,44.8-11.5,64.8,0l204.6,118.1c20,11.5,32.4,33,32.4,56.1V21.5
							c0,23.1-12.4,44.6-32.4,56.1l-204.6,118.1C1308.3,201.5,1297.1,204.4,1285.9,204.4z M1285.9-363.7c-5.3,0-10.7,1.4-15.4,4.1
							l-204.6,118.1c-9.5,5.5-15.4,15.7-15.4,26.7V21.5c0,11,5.9,21.2,15.4,26.7l204.6,118.1c9.5,5.5,21.3,5.5,30.8,0L1506,48.2
							c9.5-5.5,15.4-15.7,15.4-26.7v-236.3c0-11-5.9-21.2-15.4-26.7l-204.6-118.1C1296.6-362.3,1291.3-363.7,1285.9-363.7z"/>
						<path class="st5" d="M1507-243.3l-204.6-118.1c-5-2.9-10.7-4.4-16.5-4.4c-5.8,0-11.5,1.5-16.5,4.4l-204.6,118.1
							c-10.2,5.9-16.5,16.8-16.5,28.6V21.5c0,11.7,6.3,22.7,16.5,28.6l204.6,118.1c5,2.9,10.7,4.4,16.5,4.4c0,0,0,0,0,0
							c5.8,0,11.5-1.5,16.5-4.4L1507,50.1c10.2-5.9,16.5-16.8,16.5-28.6v-236.3C1523.5-226.5,1517.2-237.4,1507-243.3z M1521.4,21.5
							c0,11-5.9,21.2-15.4,26.7l-204.6,118.1c-9.5,5.5-21.3,5.5-30.8,0L1065.9,48.2c-9.5-5.5-15.4-15.7-15.4-26.7v-236.3
							c0-11,5.9-21.2,15.4-26.7l204.6-118.1c4.8-2.7,10.1-4.1,15.4-4.1c5.3,0,10.7,1.4,15.4,4.1L1506-241.4
							c9.5,5.5,15.4,15.7,15.4,26.7V21.5z M1522.9-270.8L1318.3-389c-20-11.5-44.8-11.5-64.8,0l-204.6,118.1
							c-20,11.5-32.4,33-32.4,56.1V21.5c0,23.1,12.4,44.6,32.4,56.1l204.6,118.1c10,5.8,21.2,8.7,32.4,8.7c11.2,0,22.4-2.9,32.4-8.7
							l204.6-118.1c20-11.5,32.4-33,32.4-56.1v-236.3C1555.3-237.8,1542.9-259.3,1522.9-270.8z M1553.2,21.5
							c0,22.3-12,43.1-31.3,54.3l-204.6,118.1c-9.5,5.5-20.3,8.4-31.3,8.4c-11,0-21.8-2.9-31.3-8.4L1050,75.8
							c-19.3-11.2-31.3-31.9-31.3-54.3v-236.3c0-22.3,12-43.1,31.3-54.3l204.6-118.1c9.5-5.5,20.3-8.4,31.3-8.4
							c11,0,21.8,2.9,31.3,8.4L1521.9-269c19.3,11.2,31.3,31.9,31.3,54.3V21.5z"/>
					</g>
				</g>
			</g>
			<g>
				
					<image style="overflow:visible;opacity:0.2;" width="933" height="1046" xlink:href="782363DE.png"  transform="matrix(0.24 0 0 0.24 1156.35 -136.44)">
				</image>
				<g>
					<g>
						<path class="st4" d="M1176.1-67.8V34c0,3.1,1.6,5.9,4.3,7.4l88.2,50.9c2.7,1.5,5.9,1.5,8.6,0l88.2-50.9
							c2.7-1.5,4.3-4.4,4.3-7.4V-67.8c0-3.1-1.6-5.9-4.3-7.4l-88.2-50.9c-2.7-1.5-5.9-1.5-8.6,0l-88.2,50.9
							C1177.7-73.7,1176.1-70.9,1176.1-67.8z"/>
						<path class="st6" d="M1360.5-78.1l-78.4-45.3c-5.7-3.3-12.7-3.3-18.3,0l-78.4,45.3c-5.7,3.3-9.2,9.3-9.2,15.9v90.6
							c0,6.5,3.5,12.6,9.2,15.9l78.4,45.3c5.7,3.3,12.7,3.3,18.3,0l78.4-45.3c5.7-3.3,9.2-9.3,9.2-15.9v-90.6
							C1369.6-68.8,1366.1-74.8,1360.5-78.1z M1367.5,28.4c0,5.8-3.1,11.1-8.1,14l-78.4,45.3c-2.5,1.4-5.3,2.2-8.1,2.2
							c-2.8,0-5.6-0.8-8.1-2.2l-78.4-45.3c-5-2.9-8.1-8.3-8.1-14v-90.6c0-5.8,3.1-11.1,8.1-14l78.4-45.3c2.5-1.4,5.3-2.2,8.1-2.2
							c2.8,0,5.6,0.7,8.1,2.2l78.4,45.3c5,2.9,8.1,8.3,8.1,14V28.4z"/>
					</g>
				</g>
			</g>
			<g>
				
					<image style="overflow:visible;opacity:0.1;" width="494" height="553" xlink:href="782363F2.png"  transform="matrix(0.24 0 0 0.24 870.27 23.16)">
				</image>
				<g>
					<g>
						<path class="st4" d="M881.4,61.1v52.8c0,1.6,0.8,3.1,2.2,3.9l45.7,26.4c1.4,0.8,3.1,0.8,4.5,0l45.7-26.4
							c1.4-0.8,2.2-2.3,2.2-3.9V61.1c0-1.6-0.8-3.1-2.2-3.9l-45.7-26.4c-1.4-0.8-3.1-0.8-4.5,0l-45.7,26.4
							C882.3,58.1,881.4,59.6,881.4,61.1z"/>
						<path class="st6" d="M977,55.8l-40.7-23.5c-2.9-1.7-6.6-1.7-9.5,0l-40.7,23.5c-2.9,1.7-4.8,4.8-4.8,8.2v47
							c0,3.4,1.8,6.5,4.8,8.2l40.7,23.5c2.9,1.7,6.6,1.7,9.5,0l40.7-23.5c2.9-1.7,4.8-4.8,4.8-8.2v-47
							C981.8,60.7,979.9,57.5,977,55.8z M979.6,111c0,2.6-1.4,5.1-3.7,6.4l-40.7,23.5c-1.1,0.6-2.4,1-3.7,1c-1.3,0-2.6-0.3-3.7-1
							l-40.7-23.5c-2.3-1.3-3.7-3.8-3.7-6.4v-47c0-2.6,1.4-5.1,3.7-6.4l40.7-23.5c1.1-0.6,2.4-1,3.7-1c1.3,0,2.6,0.3,3.7,1
							l40.7,23.5c2.3,1.3,3.7,3.8,3.7,6.4V111z"/>
					</g>
				</g>
			</g>
			<g>
				
					<image style="overflow:visible;opacity:0.1;" width="494" height="553" xlink:href="782363F1.png"  transform="matrix(0.24 0 0 0.24 1542.03 584.04)">
				</image>
				<g>
					<g>
						<path class="st4" d="M1553.1,622v52.8c0,1.6,0.8,3.1,2.2,3.9L1601,705c1.4,0.8,3.1,0.8,4.5,0l45.7-26.4
							c1.4-0.8,2.2-2.3,2.2-3.9V622c0-1.6-0.8-3.1-2.2-3.9l-45.7-26.4c-1.4-0.8-3.1-0.8-4.5,0l-45.7,26.4
							C1553.9,618.9,1553.1,620.4,1553.1,622z"/>
						<path class="st6" d="M1648.7,616.7l-40.7-23.5c-2.9-1.7-6.6-1.7-9.5,0l-40.7,23.5c-2.9,1.7-4.8,4.8-4.8,8.2v47
							c0,3.4,1.8,6.5,4.8,8.2l40.7,23.5c2.9,1.7,6.6,1.7,9.5,0l40.7-23.5c2.9-1.7,4.8-4.8,4.8-8.2v-47
							C1653.4,621.5,1651.6,618.4,1648.7,616.7z M1651.3,671.8c0,2.6-1.4,5.1-3.7,6.4l-40.7,23.5c-1.1,0.6-2.4,1-3.7,1
							s-2.6-0.3-3.7-1l-40.7-23.5c-2.3-1.3-3.7-3.8-3.7-6.4v-47c0-2.6,1.4-5.1,3.7-6.4l40.7-23.5c1.1-0.6,2.4-1,3.7-1s2.6,0.3,3.7,1
							l40.7,23.5c2.3,1.3,3.7,3.8,3.7,6.4V671.8z"/>
					</g>
				</g>
			</g>
			<g>
				
					<image style="overflow:visible;opacity:0.2;" width="1347" height="1519" xlink:href="782363FE.png"  transform="matrix(0.24 0 0 0.24 1310.67 17.4)">
				</image>
				<g>
					<g>
						<path class="st0" d="M1330.4,116.7v154.1c0,4.6,2.5,8.9,6.5,11.3l133.5,77.1c4,2.3,9,2.3,13,0l133.5-77.1
							c4-2.3,6.5-6.6,6.5-11.3V116.7c0-4.6-2.5-8.9-6.5-11.3l-133.5-77.1c-4-2.3-9-2.3-13,0l-133.5,77.1
							C1332.9,107.7,1330.4,112,1330.4,116.7z"/>
						<path class="st6" d="M1609.5,101.2l-118.7-68.5c-8.6-5-19.2-5-27.7,0l-118.7,68.5c-8.6,5-13.9,14.1-13.9,24v137.1
							c0,9.9,5.3,19.1,13.9,24l118.7,68.5c8.6,5,19.2,5,27.7,0l118.7-68.5c8.6-5,13.9-14.1,13.9-24V125.2
							C1623.4,115.3,1618.1,106.1,1609.5,101.2z M1621.2,262.3c0,9.1-4.9,17.6-12.8,22.2L1489.7,353c-3.9,2.2-8.3,3.4-12.8,3.4
							c-4.5,0-8.9-1.2-12.8-3.4l-118.7-68.5c-7.9-4.6-12.8-13.1-12.8-22.2V125.2c0-9.1,4.9-17.6,12.8-22.2l118.7-68.5
							c3.9-2.2,8.3-3.4,12.8-3.4c4.5,0,8.9,1.2,12.8,3.4l118.7,68.5c7.9,4.6,12.8,13.1,12.8,22.2V262.3z"/>
					</g>
				</g>
			</g>
			<g>
				
					<image style="overflow:visible;opacity:0.2;" width="932" height="1046" xlink:href="782363F0.png"  transform="matrix(0.24 0 0 0.24 1484.67 -94.92)">
				</image>
				<g>
					<g>
						<path class="st4" d="M1504.2-26.3V75.5c0,3.1,1.6,5.9,4.3,7.4l88.2,50.9c2.7,1.5,5.9,1.5,8.6,0l88.2-50.9
							c2.7-1.5,4.3-4.4,4.3-7.4V-26.3c0-3.1-1.6-5.9-4.3-7.4l-88.2-50.9c-2.7-1.5-5.9-1.5-8.6,0l-88.2,50.9
							C1505.9-32.2,1504.2-29.4,1504.2-26.3z"/>
						<path class="st6" d="M1688.6-36.6l-78.4-45.3c-5.7-3.3-12.7-3.3-18.3,0l-78.4,45.3c-5.7,3.3-9.2,9.3-9.2,15.9v90.6
							c0,6.5,3.5,12.6,9.2,15.9l78.4,45.3c5.7,3.3,12.7,3.3,18.3,0l78.4-45.3c5.7-3.3,9.2-9.3,9.2-15.9v-90.6
							C1697.8-27.2,1694.3-33.3,1688.6-36.6z M1695.6,69.9c0,5.8-3.1,11.1-8.1,14l-78.4,45.3c-2.5,1.4-5.3,2.2-8.1,2.2
							c-2.8,0-5.6-0.8-8.1-2.2l-78.4-45.3c-5-2.9-8.1-8.3-8.1-14v-90.6c0-5.8,3.1-11.1,8.1-14l78.4-45.3c2.5-1.4,5.3-2.2,8.1-2.2
							c2.8,0,5.6,0.7,8.1,2.2l78.4,45.3c5,2.9,8.1,8.3,8.1,14V69.9z"/>
					</g>
				</g>
			</g>
			<g>
				
					<image style="overflow:visible;opacity:0.2;" width="932" height="1046" xlink:href="782363F3.png"  transform="matrix(0.24 0 0 0.24 990.75 31.56)">
				</image>
				<g>
					<g>
						<path class="st4" d="M1010.5,100.2v101.8c0,3.1,1.6,5.9,4.3,7.4l88.2,50.9c2.7,1.5,5.9,1.5,8.6,0l88.2-50.9
							c2.7-1.5,4.3-4.4,4.3-7.4V100.2c0-3.1-1.6-5.9-4.3-7.4l-88.2-50.9c-2.7-1.5-5.9-1.5-8.6,0l-88.2,50.9
							C1012.1,94.3,1010.5,97.2,1010.5,100.2z"/>
						<path class="st6" d="M1194.8,90l-78.4-45.3c-5.7-3.3-12.7-3.3-18.3,0L1019.6,90c-5.7,3.3-9.2,9.3-9.2,15.9v90.6
							c0,6.5,3.5,12.6,9.2,15.9l78.4,45.3c5.7,3.3,12.7,3.3,18.3,0l78.4-45.3c5.7-3.3,9.2-9.3,9.2-15.9v-90.6
							C1204,99.3,1200.5,93.3,1194.8,90z M1201.9,196.4c0,5.8-3.1,11.1-8.1,14l-78.4,45.3c-2.5,1.4-5.3,2.2-8.1,2.2
							s-5.6-0.8-8.1-2.2l-78.4-45.3c-5-2.9-8.1-8.3-8.1-14v-90.6c0-5.8,3.1-11.1,8.1-14l78.4-45.3c2.5-1.4,5.3-2.2,8.1-2.2
							s5.6,0.7,8.1,2.2l78.4,45.3c5,2.9,8.1,8.3,8.1,14V196.4z"/>
					</g>
				</g>
			</g>
		</g>
	</g>
	
		<image style="overflow:visible;" width="1920" height="1080" xlink:href="home-bg copiar.png"  transform="matrix(1 0 0 1 -272.1417 -13.5112)">
	</image>
</g>
</svg>
